<svg width="55" height="57" viewBox="0 0 55 57" fill="none" xmlns="http://www.w3.org/2000/svg">
<path d="M36.5365 49.2229V12.2346C36.5365 11.0084 36.0647 9.83237 35.2247 8.96529C34.3848 8.09821 33.2456 7.61108 32.0578 7.61108H23.1004C21.9126 7.61108 20.7734 8.09821 19.9335 8.96529C19.0935 9.83237 18.6217 11.0084 18.6217 12.2346V49.2229M9.66426 16.8582H45.494C47.9675 16.8582 49.9727 18.9282 49.9727 21.4817V44.5994C49.9727 47.1529 47.9675 49.2229 45.494 49.2229H9.66426C7.19073 49.2229 5.18555 47.1529 5.18555 44.5994V21.4817C5.18555 18.9282 7.19073 16.8582 9.66426 16.8582Z" stroke="url(#paint0_linear_35_5923)" stroke-width="2" stroke-linecap="round" stroke-linejoin="round"/>
<defs>
<linearGradient id="paint0_linear_35_5923" x1="1.94443" y1="7.61108" x2="59.2501" y2="53.6357" gradientUnits="userSpaceOnUse">
<stop stop-color="#F80005"/>
<stop offset="1" stop-color="#A800E3"/>
</linearGradient>
</defs>
</svg>
