<svg width="54" height="57" viewBox="0 0 54 57" fill="none" xmlns="http://www.w3.org/2000/svg">
<path d="M49.502 28.417C49.502 41.1845 39.6173 51.5347 27.4239 51.5347M49.502 28.417C49.502 15.6495 39.6173 5.29932 27.4239 5.29932M49.502 28.417H5.3457M27.4239 51.5347C15.2304 51.5347 5.3457 41.1845 5.3457 28.417M27.4239 51.5347C32.9462 45.2042 36.0846 36.989 36.2551 28.417C36.0846 19.845 32.9462 11.6298 27.4239 5.29932M27.4239 51.5347C21.9015 45.2042 18.7631 36.989 18.5926 28.417C18.7631 19.845 21.9015 11.6298 27.4239 5.29932M5.3457 28.417C5.3457 15.6495 15.2304 5.29932 27.4239 5.29932" stroke="url(#paint0_linear_35_5924)" stroke-width="2" stroke-linecap="round" stroke-linejoin="round"/>
<defs>
<linearGradient id="paint0_linear_35_5924" x1="2.15024" y1="5.29932" x2="63.7885" y2="49.2257" gradientUnits="userSpaceOnUse">
<stop stop-color="#F80005"/>
<stop offset="1" stop-color="#A800E3"/>
</linearGradient>
</defs>
</svg>
