<svg width="90" height="90" viewBox="0 0 90 90" fill="none" xmlns="http://www.w3.org/2000/svg">
<path d="M78.75 60.0001V30.0001C78.7487 28.6849 78.4015 27.3932 77.7433 26.2545C77.0851 25.1158 76.139 24.1702 75 23.5126L48.75 8.51262C47.6099 7.85436 46.3165 7.50781 45 7.50781C43.6835 7.50781 42.3901 7.85436 41.25 8.51262L15 23.5126C13.861 24.1702 12.9149 25.1158 12.2567 26.2545C11.5985 27.3932 11.2513 28.6849 11.25 30.0001V60.0001C11.2513 61.3153 11.5985 62.6071 12.2567 63.7458C12.9149 64.8844 13.861 65.83 15 66.4876L41.25 81.4876C42.3901 82.1459 43.6835 82.4924 45 82.4924C46.3165 82.4924 47.6099 82.1459 48.75 81.4876L75 66.4876C76.139 65.83 77.0851 64.8844 77.7433 63.7458C78.4015 62.6071 78.7487 61.3153 78.75 60.0001Z" stroke="url(#paint0_linear_894_691)" stroke-width="10" stroke-linecap="round" stroke-linejoin="round"/>
<defs>
<linearGradient id="paint0_linear_894_691" x1="6.36522" y1="7.50781" x2="104.268" y2="73.271" gradientUnits="userSpaceOnUse">
<stop stop-color="#F80005"/>
<stop offset="1" stop-color="#A800E3"/>
</linearGradient>
</defs>
</svg>
