<svg width="91" height="91" viewBox="0 0 91 91" fill="none" xmlns="http://www.w3.org/2000/svg">
<path d="M79.0186 8.35876L71.5701 15.8072M71.5701 15.8072L82.7428 26.9799L69.708 40.0147L58.5353 28.842M71.5701 15.8072L58.5353 28.842M43.2287 44.1486C45.1517 46.046 46.6803 48.305 47.7267 50.7956C48.773 53.2862 49.3163 55.9592 49.3254 58.6606C49.3344 61.362 48.809 64.0386 47.7794 66.5361C46.7498 69.0337 45.2363 71.3029 43.3261 73.2131C41.4159 75.1233 39.1466 76.6368 36.6491 77.6664C34.1516 78.696 31.475 79.2214 28.7736 79.2124C26.0721 79.2033 23.3992 78.66 20.9086 77.6137C18.418 76.5673 16.159 75.0387 14.2616 73.1157C10.5304 69.2525 8.46582 64.0784 8.51249 58.7078C8.55916 53.3371 10.7134 48.1996 14.5111 44.4019C18.3089 40.6041 23.4464 38.4499 28.817 38.4032C34.1877 38.3566 39.3618 40.4212 43.225 44.1524L43.2287 44.1486ZM43.2287 44.1486L58.5353 28.842" stroke="url(#paint0_linear_35_5935)" stroke-width="10" stroke-linecap="round" stroke-linejoin="round"/>
<defs>
<linearGradient id="paint0_linear_35_5935" x1="3.13983" y1="8.35876" x2="100.116" y2="84.1721" gradientUnits="userSpaceOnUse">
<stop stop-color="#F80005"/>
<stop offset="1" stop-color="#A800E3"/>
</linearGradient>
</defs>
</svg>
