<svg width="1440" height="2049" viewBox="0 0 1440 2049" fill="none" xmlns="http://www.w3.org/2000/svg">
<path d="M0 0.998901L1440 417.999L1440 1039L1.3871e-06 621.499L0 0.998901Z" fill="#1E1E1E" fill-opacity="0.7"/>
<line x1="-102.728" y1="1799.13" x2="1560.38" y2="1632.26" stroke="url(#paint0_linear_82_7335)"/>
<line x1="-102.728" y1="1799.13" x2="1560.38" y2="1632.26" stroke="url(#paint1_linear_82_7335)"/>
<line x1="-102.728" y1="1799.13" x2="1560.38" y2="1632.26" stroke="url(#paint2_linear_82_7335)"/>
<line x1="-102.728" y1="1799.13" x2="1560.38" y2="1632.26" stroke="url(#paint3_linear_82_7335)"/>
<line x1="-101.644" y1="1809.34" x2="1559.29" y2="1622.06" stroke="url(#paint4_linear_82_7335)"/>
<line x1="-102.242" y1="1803.86" x2="1559.89" y2="1627.52" stroke="url(#paint5_linear_82_7335)"/>
<line x1="-106.806" y1="1724.91" x2="1564.55" y2="1706.48" stroke="url(#paint6_linear_82_7335)"/>
<line x1="-106.577" y1="1694.77" x2="1564.36" y2="1736.61" stroke="url(#paint7_linear_82_7335)"/>
<line x1="-104.285" y1="1650.71" x2="1562.12" y2="1780.67" stroke="url(#paint8_linear_82_7335)"/>
<line x1="-97.8862" y1="1594.1" x2="1555.79" y2="1837.29" stroke="url(#paint9_linear_82_7335)"/>
<line x1="-89.0343" y1="1544.54" x2="1546.99" y2="1886.87" stroke="url(#paint10_linear_82_7335)"/>
<line x1="-106.476" y1="1741.26" x2="1564.2" y2="1690.13" stroke="url(#paint11_linear_82_7335)"/>
<line x1="-105.706" y1="1759.97" x2="1563.41" y2="1671.41" stroke="url(#paint12_linear_82_7335)"/>
<line x1="-105.113" y1="1770.09" x2="1562.8" y2="1661.29" stroke="url(#paint13_linear_82_7335)"/>
<line x1="-104.681" y1="1776.4" x2="1562.36" y2="1654.99" stroke="url(#paint14_linear_82_7335)"/>
<line x1="-104.346" y1="1780.87" x2="1562.02" y2="1650.52" stroke="url(#paint15_linear_82_7335)"/>
<line x1="-104.022" y1="1784.9" x2="1561.7" y2="1646.49" stroke="url(#paint16_linear_82_7335)"/>
<line x1="-103.766" y1="1787.96" x2="1561.43" y2="1643.42" stroke="url(#paint17_linear_82_7335)"/>
<line x1="-103.766" y1="1787.96" x2="1561.43" y2="1643.42" stroke="url(#paint18_linear_82_7335)"/>
<line x1="-103.766" y1="1787.96" x2="1561.43" y2="1643.42" stroke="url(#paint19_linear_82_7335)"/>
<line x1="-103.766" y1="1787.96" x2="1561.43" y2="1643.42" stroke="url(#paint20_linear_82_7335)"/>
<line x1="-103.766" y1="1787.96" x2="1561.43" y2="1643.42" stroke="url(#paint21_linear_82_7335)"/>
<line x1="-103.766" y1="1787.96" x2="1561.43" y2="1643.42" stroke="url(#paint22_linear_82_7335)"/>
<line x1="-103.766" y1="1787.96" x2="1561.43" y2="1643.42" stroke="url(#paint23_linear_82_7335)"/>
<line x1="-103.766" y1="1787.96" x2="1561.43" y2="1643.42" stroke="url(#paint24_linear_82_7335)"/>
<line x1="-103.766" y1="1787.96" x2="1561.43" y2="1643.42" stroke="url(#paint25_linear_82_7335)"/>
<line x1="-103.766" y1="1787.96" x2="1561.43" y2="1643.42" stroke="url(#paint26_linear_82_7335)"/>
<line x1="-95.5121" y1="1853.4" x2="1553.1" y2="1578" stroke="url(#paint27_linear_82_7335)"/>
<line x1="-97.3392" y1="1841.94" x2="1554.94" y2="1589.46" stroke="url(#paint28_linear_82_7335)"/>
<line x1="-100.567" y1="1818.5" x2="1558.2" y2="1612.89" stroke="url(#paint29_linear_82_7335)"/>
<line x1="-103.457" y1="1791.43" x2="1561.13" y2="1639.97" stroke="url(#paint30_linear_82_7335)"/>
<line x1="-103.118" y1="1795.11" x2="1560.78" y2="1636.28" stroke="url(#paint31_linear_82_7335)"/>
<line x1="-102.728" y1="1799.13" x2="1560.38" y2="1632.26" stroke="url(#paint32_linear_82_7335)" stroke-opacity="0.4"/>
<line x1="-102.728" y1="1799.13" x2="1560.38" y2="1632.26" stroke="url(#paint33_linear_82_7335)" stroke-opacity="0.4"/>
<line x1="-102.728" y1="1799.13" x2="1560.38" y2="1632.26" stroke="url(#paint34_linear_82_7335)" stroke-opacity="0.4"/>
<line x1="-102.728" y1="1799.13" x2="1560.38" y2="1632.26" stroke="url(#paint35_linear_82_7335)" stroke-opacity="0.4"/>
<line x1="-101.644" y1="1809.34" x2="1559.29" y2="1622.06" stroke="url(#paint36_linear_82_7335)" stroke-opacity="0.4"/>
<line x1="-102.24" y1="1803.86" x2="1559.89" y2="1627.52" stroke="url(#paint37_linear_82_7335)" stroke-opacity="0.4"/>
<line x1="-106.806" y1="1724.9" x2="1564.55" y2="1706.48" stroke="url(#paint38_linear_82_7335)" stroke-opacity="0.4"/>
<line x1="-106.577" y1="1694.77" x2="1564.36" y2="1736.61" stroke="url(#paint39_linear_82_7335)" stroke-opacity="0.4"/>
<line x1="-104.283" y1="1650.71" x2="1562.12" y2="1780.67" stroke="url(#paint40_linear_82_7335)" stroke-opacity="0.4"/>
<line x1="-97.8862" y1="1594.1" x2="1555.79" y2="1837.29" stroke="url(#paint41_linear_82_7335)" stroke-opacity="0.4"/>
<path d="M-98.3438 1542.33L1546.99 1886.87" stroke="url(#paint42_linear_82_7335)" stroke-opacity="0.4"/>
<path d="M-217.596 1379.09L1667.39 2047.55" stroke="url(#paint43_linear_82_7335)" stroke-opacity="0.4"/>
<line x1="-106.476" y1="1741.26" x2="1564.2" y2="1690.12" stroke="url(#paint44_linear_82_7335)" stroke-opacity="0.4"/>
<line x1="-105.704" y1="1759.97" x2="1563.41" y2="1671.41" stroke="url(#paint45_linear_82_7335)" stroke-opacity="0.4"/>
<line x1="-105.113" y1="1770.09" x2="1562.8" y2="1661.29" stroke="url(#paint46_linear_82_7335)" stroke-opacity="0.4"/>
<line x1="-104.679" y1="1776.4" x2="1562.37" y2="1654.99" stroke="url(#paint47_linear_82_7335)" stroke-opacity="0.4"/>
<line x1="-104.346" y1="1780.87" x2="1562.02" y2="1650.52" stroke="url(#paint48_linear_82_7335)" stroke-opacity="0.4"/>
<line x1="-104.022" y1="1784.9" x2="1561.7" y2="1646.49" stroke="url(#paint49_linear_82_7335)" stroke-opacity="0.4"/>
<line x1="-103.766" y1="1787.96" x2="1561.43" y2="1643.42" stroke="url(#paint50_linear_82_7335)" stroke-opacity="0.4"/>
<line x1="-103.766" y1="1787.96" x2="1561.43" y2="1643.42" stroke="url(#paint51_linear_82_7335)" stroke-opacity="0.4"/>
<line x1="-103.766" y1="1787.96" x2="1561.43" y2="1643.42" stroke="url(#paint52_linear_82_7335)" stroke-opacity="0.4"/>
<line x1="-103.766" y1="1787.96" x2="1561.43" y2="1643.42" stroke="url(#paint53_linear_82_7335)" stroke-opacity="0.4"/>
<line x1="-103.766" y1="1787.96" x2="1561.43" y2="1643.42" stroke="url(#paint54_linear_82_7335)" stroke-opacity="0.4"/>
<line x1="-103.766" y1="1787.96" x2="1561.43" y2="1643.42" stroke="url(#paint55_linear_82_7335)" stroke-opacity="0.4"/>
<line x1="-103.766" y1="1787.96" x2="1561.43" y2="1643.42" stroke="url(#paint56_linear_82_7335)" stroke-opacity="0.4"/>
<line x1="-103.766" y1="1787.96" x2="1561.43" y2="1643.42" stroke="url(#paint57_linear_82_7335)" stroke-opacity="0.4"/>
<line x1="-103.766" y1="1787.96" x2="1561.43" y2="1643.42" stroke="url(#paint58_linear_82_7335)" stroke-opacity="0.4"/>
<line x1="-103.766" y1="1787.96" x2="1561.43" y2="1643.42" stroke="url(#paint59_linear_82_7335)" stroke-opacity="0.4"/>
<line x1="-95.5121" y1="1853.4" x2="1553.1" y2="1578" stroke="url(#paint60_linear_82_7335)" stroke-opacity="0.4"/>
<line x1="-88.4679" y1="1890.52" x2="1546.02" y2="1540.89" stroke="url(#paint61_linear_82_7335)" stroke-opacity="0.4"/>
<line x1="-67.9967" y1="1968.06" x2="1525.45" y2="1463.37" stroke="url(#paint62_linear_82_7335)" stroke-opacity="0.4"/>
<line x1="-97.3392" y1="1841.94" x2="1554.94" y2="1589.46" stroke="url(#paint63_linear_82_7335)" stroke-opacity="0.4"/>
<line x1="-100.567" y1="1818.5" x2="1558.2" y2="1612.89" stroke="url(#paint64_linear_82_7335)" stroke-opacity="0.4"/>
<line x1="-103.457" y1="1791.42" x2="1561.13" y2="1639.97" stroke="url(#paint65_linear_82_7335)" stroke-opacity="0.4"/>
<line x1="-103.116" y1="1795.11" x2="1560.78" y2="1636.28" stroke="url(#paint66_linear_82_7335)" stroke-opacity="0.4"/>
<path d="M0.000863725 1455L729.5 1715.07L1440 1489.5L1440 1041L0.00061522 865L0.000863725 1455Z" fill="url(#paint67_linear_82_7335)" fill-opacity="0.7"/>
<line x1="0.0613387" y1="0.503777" x2="1440.06" y2="178.504" stroke="url(#paint68_linear_82_7335)"/>
<line x1="0.0657436" y1="0.504341" x2="1440.07" y2="191.504" stroke="url(#paint69_linear_82_7335)"/>
<line x1="0.0697485" y1="0.504889" x2="1441.07" y2="203.505" stroke="url(#paint70_linear_82_7335)"/>
<line x1="0.074506" y1="0.505582" x2="1440.07" y2="217.506" stroke="url(#paint71_linear_82_7335)"/>
<line x1="0.0808656" y1="0.506583" x2="1440.08" y2="236.507" stroke="url(#paint72_linear_82_7335)"/>
<line x1="0.0868537" y1="0.507601" x2="1440.09" y2="254.508" stroke="url(#paint73_linear_82_7335)"/>
<line x1="0.0937911" y1="0.508876" x2="1440.09" y2="275.509" stroke="url(#paint74_linear_82_7335)"/>
<line x1="0.101325" y1="0.510374" x2="1440.1" y2="298.51" stroke="url(#paint75_linear_82_7335)"/>
<line x1="0.107172" y1="0.511621" x2="1440.11" y2="316.512" stroke="url(#paint76_linear_82_7335)"/>
<line x1="0.114896" y1="0.51338" x2="1440.11" y2="340.513" stroke="url(#paint77_linear_82_7335)"/>
<line x1="0.123799" y1="0.515569" x2="1440.12" y2="368.516" stroke="url(#paint78_linear_82_7335)"/>
<line x1="0.130708" y1="0.517387" x2="1440.13" y2="390.517" stroke="url(#paint79_linear_82_7335)"/>
<line x1="0.139078" y1="0.519732" x2="1440.14" y2="417.52" stroke="url(#paint80_linear_82_7335)"/>
<line x1="1440.94" y1="1039.5" x2="0.938743" y2="861.496" stroke="url(#paint81_linear_82_7335)"/>
<line x1="1440.93" y1="1039.5" x2="0.934207" y2="848.496" stroke="url(#paint82_linear_82_7335)"/>
<line x1="1440.93" y1="1039.5" x2="-0.0697872" y2="836.495" stroke="url(#paint83_linear_82_7335)"/>
<line x1="1440.93" y1="1039.49" x2="0.925501" y2="822.494" stroke="url(#paint84_linear_82_7335)"/>
<line x1="1440.92" y1="1039.49" x2="0.919119" y2="803.493" stroke="url(#paint85_linear_82_7335)"/>
<line x1="1440.91" y1="1039.49" x2="0.913164" y2="785.492" stroke="url(#paint86_linear_82_7335)"/>
<line x1="1440.91" y1="1039.49" x2="0.906209" y2="764.491" stroke="url(#paint87_linear_82_7335)"/>
<line x1="1440.9" y1="1039.49" x2="0.898747" y2="741.49" stroke="url(#paint88_linear_82_7335)"/>
<line x1="1440.89" y1="1039.49" x2="0.892801" y2="723.488" stroke="url(#paint89_linear_82_7335)"/>
<line x1="1440.89" y1="1039.49" x2="0.885072" y2="699.487" stroke="url(#paint90_linear_82_7335)"/>
<line x1="1440.88" y1="1039.48" x2="0.876261" y2="671.484" stroke="url(#paint91_linear_82_7335)"/>
<line x1="1440.87" y1="1039.48" x2="0.869311" y2="649.483" stroke="url(#paint92_linear_82_7335)"/>
<line x1="1440.86" y1="1039.48" x2="0.860887" y2="622.48" stroke="url(#paint93_linear_82_7335)"/>
<defs>
<linearGradient id="paint0_linear_82_7335" x1="-102.628" y1="1800.12" x2="1560.48" y2="1633.25" gradientUnits="userSpaceOnUse">
<stop stop-color="#F80005"/>
<stop offset="1" stop-color="#A800E3"/>
</linearGradient>
<linearGradient id="paint1_linear_82_7335" x1="-102.628" y1="1800.12" x2="1560.48" y2="1633.25" gradientUnits="userSpaceOnUse">
<stop stop-color="#F80005"/>
<stop offset="1" stop-color="#A800E3"/>
</linearGradient>
<linearGradient id="paint2_linear_82_7335" x1="-102.628" y1="1800.12" x2="1560.48" y2="1633.25" gradientUnits="userSpaceOnUse">
<stop stop-color="#F80005"/>
<stop offset="1" stop-color="#A800E3"/>
</linearGradient>
<linearGradient id="paint3_linear_82_7335" x1="-102.628" y1="1800.12" x2="1560.48" y2="1633.25" gradientUnits="userSpaceOnUse">
<stop stop-color="#F80005"/>
<stop offset="1" stop-color="#A800E3"/>
</linearGradient>
<linearGradient id="paint4_linear_82_7335" x1="-101.532" y1="1810.33" x2="1559.4" y2="1623.05" gradientUnits="userSpaceOnUse">
<stop stop-color="#F80005"/>
<stop offset="1" stop-color="#A800E3"/>
</linearGradient>
<linearGradient id="paint5_linear_82_7335" x1="-102.137" y1="1804.86" x2="1560" y2="1628.52" gradientUnits="userSpaceOnUse">
<stop stop-color="#F80005"/>
<stop offset="1" stop-color="#A800E3"/>
</linearGradient>
<linearGradient id="paint6_linear_82_7335" x1="-106.795" y1="1725.9" x2="1564.56" y2="1707.48" gradientUnits="userSpaceOnUse">
<stop stop-color="#F80005"/>
<stop offset="1" stop-color="#A800E3"/>
</linearGradient>
<linearGradient id="paint7_linear_82_7335" x1="-106.602" y1="1695.77" x2="1564.33" y2="1737.61" gradientUnits="userSpaceOnUse">
<stop stop-color="#F80005"/>
<stop offset="1" stop-color="#A800E3"/>
</linearGradient>
<linearGradient id="paint8_linear_82_7335" x1="-104.363" y1="1651.71" x2="1562.04" y2="1781.66" gradientUnits="userSpaceOnUse">
<stop stop-color="#F80005"/>
<stop offset="1" stop-color="#A800E3"/>
</linearGradient>
<linearGradient id="paint9_linear_82_7335" x1="-98.0317" y1="1595.09" x2="1555.64" y2="1838.28" gradientUnits="userSpaceOnUse">
<stop stop-color="#F80005"/>
<stop offset="1" stop-color="#A800E3"/>
</linearGradient>
<linearGradient id="paint10_linear_82_7335" x1="-89.2391" y1="1545.51" x2="1546.79" y2="1887.85" gradientUnits="userSpaceOnUse">
<stop stop-color="#F80005"/>
<stop offset="1" stop-color="#A800E3"/>
</linearGradient>
<linearGradient id="paint11_linear_82_7335" x1="-106.446" y1="1742.26" x2="1564.23" y2="1691.12" gradientUnits="userSpaceOnUse">
<stop stop-color="#F80005"/>
<stop offset="1" stop-color="#A800E3"/>
</linearGradient>
<linearGradient id="paint12_linear_82_7335" x1="-105.653" y1="1760.97" x2="1563.46" y2="1672.41" gradientUnits="userSpaceOnUse">
<stop stop-color="#F80005"/>
<stop offset="1" stop-color="#A800E3"/>
</linearGradient>
<linearGradient id="paint13_linear_82_7335" x1="-105.048" y1="1771.09" x2="1562.87" y2="1662.29" gradientUnits="userSpaceOnUse">
<stop stop-color="#F80005"/>
<stop offset="1" stop-color="#A800E3"/>
</linearGradient>
<linearGradient id="paint14_linear_82_7335" x1="-104.608" y1="1777.4" x2="1562.44" y2="1655.99" gradientUnits="userSpaceOnUse">
<stop stop-color="#F80005"/>
<stop offset="1" stop-color="#A800E3"/>
</linearGradient>
<linearGradient id="paint15_linear_82_7335" x1="-104.268" y1="1781.86" x2="1562.1" y2="1651.52" gradientUnits="userSpaceOnUse">
<stop stop-color="#F80005"/>
<stop offset="1" stop-color="#A800E3"/>
</linearGradient>
<linearGradient id="paint16_linear_82_7335" x1="-103.939" y1="1785.89" x2="1561.78" y2="1647.49" gradientUnits="userSpaceOnUse">
<stop stop-color="#F80005"/>
<stop offset="1" stop-color="#A800E3"/>
</linearGradient>
<linearGradient id="paint17_linear_82_7335" x1="-103.679" y1="1788.96" x2="1561.52" y2="1644.42" gradientUnits="userSpaceOnUse">
<stop stop-color="#F80005"/>
<stop offset="1" stop-color="#A800E3"/>
</linearGradient>
<linearGradient id="paint18_linear_82_7335" x1="-103.679" y1="1788.96" x2="1561.52" y2="1644.42" gradientUnits="userSpaceOnUse">
<stop stop-color="#F80005"/>
<stop offset="1" stop-color="#A800E3"/>
</linearGradient>
<linearGradient id="paint19_linear_82_7335" x1="-103.679" y1="1788.96" x2="1561.52" y2="1644.42" gradientUnits="userSpaceOnUse">
<stop stop-color="#F80005"/>
<stop offset="1" stop-color="#A800E3"/>
</linearGradient>
<linearGradient id="paint20_linear_82_7335" x1="-103.679" y1="1788.96" x2="1561.52" y2="1644.42" gradientUnits="userSpaceOnUse">
<stop stop-color="#F80005"/>
<stop offset="1" stop-color="#A800E3"/>
</linearGradient>
<linearGradient id="paint21_linear_82_7335" x1="-103.679" y1="1788.96" x2="1561.52" y2="1644.42" gradientUnits="userSpaceOnUse">
<stop stop-color="#F80005"/>
<stop offset="1" stop-color="#A800E3"/>
</linearGradient>
<linearGradient id="paint22_linear_82_7335" x1="-103.679" y1="1788.96" x2="1561.52" y2="1644.42" gradientUnits="userSpaceOnUse">
<stop stop-color="#F80005"/>
<stop offset="1" stop-color="#A800E3"/>
</linearGradient>
<linearGradient id="paint23_linear_82_7335" x1="-103.679" y1="1788.96" x2="1561.52" y2="1644.42" gradientUnits="userSpaceOnUse">
<stop stop-color="#F80005"/>
<stop offset="1" stop-color="#A800E3"/>
</linearGradient>
<linearGradient id="paint24_linear_82_7335" x1="-103.679" y1="1788.96" x2="1561.52" y2="1644.42" gradientUnits="userSpaceOnUse">
<stop stop-color="#F80005"/>
<stop offset="1" stop-color="#A800E3"/>
</linearGradient>
<linearGradient id="paint25_linear_82_7335" x1="-103.679" y1="1788.96" x2="1561.52" y2="1644.42" gradientUnits="userSpaceOnUse">
<stop stop-color="#F80005"/>
<stop offset="1" stop-color="#A800E3"/>
</linearGradient>
<linearGradient id="paint26_linear_82_7335" x1="-103.679" y1="1788.96" x2="1561.52" y2="1644.42" gradientUnits="userSpaceOnUse">
<stop stop-color="#F80005"/>
<stop offset="1" stop-color="#A800E3"/>
</linearGradient>
<linearGradient id="paint27_linear_82_7335" x1="-95.3473" y1="1854.39" x2="1553.27" y2="1578.98" gradientUnits="userSpaceOnUse">
<stop stop-color="#F80005"/>
<stop offset="1" stop-color="#A800E3"/>
</linearGradient>
<linearGradient id="paint28_linear_82_7335" x1="-97.1881" y1="1842.92" x2="1555.09" y2="1590.45" gradientUnits="userSpaceOnUse">
<stop stop-color="#F80005"/>
<stop offset="1" stop-color="#A800E3"/>
</linearGradient>
<linearGradient id="paint29_linear_82_7335" x1="-100.444" y1="1819.49" x2="1558.32" y2="1613.88" gradientUnits="userSpaceOnUse">
<stop stop-color="#F80005"/>
<stop offset="1" stop-color="#A800E3"/>
</linearGradient>
<linearGradient id="paint30_linear_82_7335" x1="-101.03" y1="1814.09" x2="1557.37" y2="1607.21" gradientUnits="userSpaceOnUse">
<stop stop-color="#F80005"/>
<stop offset="1" stop-color="#A800E3"/>
</linearGradient>
<linearGradient id="paint31_linear_82_7335" x1="-103.023" y1="1796.11" x2="1560.87" y2="1637.27" gradientUnits="userSpaceOnUse">
<stop stop-color="#F80005"/>
<stop offset="1" stop-color="#A800E3"/>
</linearGradient>
<linearGradient id="paint32_linear_82_7335" x1="-102.628" y1="1800.12" x2="1560.48" y2="1633.25" gradientUnits="userSpaceOnUse">
<stop stop-color="#F80005"/>
<stop offset="1" stop-color="#A800E3"/>
</linearGradient>
<linearGradient id="paint33_linear_82_7335" x1="-102.628" y1="1800.12" x2="1560.48" y2="1633.25" gradientUnits="userSpaceOnUse">
<stop stop-color="#F80005"/>
<stop offset="1" stop-color="#A800E3"/>
</linearGradient>
<linearGradient id="paint34_linear_82_7335" x1="-102.628" y1="1800.12" x2="1560.48" y2="1633.25" gradientUnits="userSpaceOnUse">
<stop stop-color="#F80005"/>
<stop offset="1" stop-color="#A800E3"/>
</linearGradient>
<linearGradient id="paint35_linear_82_7335" x1="-102.628" y1="1800.12" x2="1560.48" y2="1633.25" gradientUnits="userSpaceOnUse">
<stop stop-color="#F80005"/>
<stop offset="1" stop-color="#A800E3"/>
</linearGradient>
<linearGradient id="paint36_linear_82_7335" x1="-101.532" y1="1810.33" x2="1559.4" y2="1623.05" gradientUnits="userSpaceOnUse">
<stop stop-color="#F80005"/>
<stop offset="1" stop-color="#A800E3"/>
</linearGradient>
<linearGradient id="paint37_linear_82_7335" x1="-102.135" y1="1804.85" x2="1560" y2="1628.52" gradientUnits="userSpaceOnUse">
<stop stop-color="#F80005"/>
<stop offset="1" stop-color="#A800E3"/>
</linearGradient>
<linearGradient id="paint38_linear_82_7335" x1="-106.795" y1="1725.9" x2="1564.56" y2="1707.48" gradientUnits="userSpaceOnUse">
<stop stop-color="#F80005"/>
<stop offset="1" stop-color="#A800E3"/>
</linearGradient>
<linearGradient id="paint39_linear_82_7335" x1="-106.602" y1="1695.77" x2="1564.33" y2="1737.61" gradientUnits="userSpaceOnUse">
<stop stop-color="#F80005"/>
<stop offset="1" stop-color="#A800E3"/>
</linearGradient>
<linearGradient id="paint40_linear_82_7335" x1="-104.361" y1="1651.71" x2="1562.04" y2="1781.66" gradientUnits="userSpaceOnUse">
<stop stop-color="#F80005"/>
<stop offset="1" stop-color="#A800E3"/>
</linearGradient>
<linearGradient id="paint41_linear_82_7335" x1="-98.0317" y1="1595.09" x2="1555.64" y2="1838.28" gradientUnits="userSpaceOnUse">
<stop stop-color="#F80005"/>
<stop offset="1" stop-color="#A800E3"/>
</linearGradient>
<linearGradient id="paint42_linear_82_7335" x1="-89.2376" y1="1545.51" x2="1546.79" y2="1887.85" gradientUnits="userSpaceOnUse">
<stop stop-color="#F80005"/>
<stop offset="1" stop-color="#A800E3"/>
</linearGradient>
<linearGradient id="paint43_linear_82_7335" x1="-58.9565" y1="1437.34" x2="1826.03" y2="2105.8" gradientUnits="userSpaceOnUse">
<stop stop-color="#F80005"/>
<stop offset="1" stop-color="#A800E3"/>
</linearGradient>
<linearGradient id="paint44_linear_82_7335" x1="-106.446" y1="1742.26" x2="1564.23" y2="1691.12" gradientUnits="userSpaceOnUse">
<stop stop-color="#F80005"/>
<stop offset="1" stop-color="#A800E3"/>
</linearGradient>
<linearGradient id="paint45_linear_82_7335" x1="-105.651" y1="1760.97" x2="1563.46" y2="1672.41" gradientUnits="userSpaceOnUse">
<stop stop-color="#F80005"/>
<stop offset="1" stop-color="#A800E3"/>
</linearGradient>
<linearGradient id="paint46_linear_82_7335" x1="-105.048" y1="1771.09" x2="1562.87" y2="1662.29" gradientUnits="userSpaceOnUse">
<stop stop-color="#F80005"/>
<stop offset="1" stop-color="#A800E3"/>
</linearGradient>
<linearGradient id="paint47_linear_82_7335" x1="-104.606" y1="1777.4" x2="1562.44" y2="1655.98" gradientUnits="userSpaceOnUse">
<stop stop-color="#F80005"/>
<stop offset="1" stop-color="#A800E3"/>
</linearGradient>
<linearGradient id="paint48_linear_82_7335" x1="-104.268" y1="1781.86" x2="1562.1" y2="1651.52" gradientUnits="userSpaceOnUse">
<stop stop-color="#F80005"/>
<stop offset="1" stop-color="#A800E3"/>
</linearGradient>
<linearGradient id="paint49_linear_82_7335" x1="-103.939" y1="1785.89" x2="1561.78" y2="1647.49" gradientUnits="userSpaceOnUse">
<stop stop-color="#F80005"/>
<stop offset="1" stop-color="#A800E3"/>
</linearGradient>
<linearGradient id="paint50_linear_82_7335" x1="-103.679" y1="1788.96" x2="1561.52" y2="1644.42" gradientUnits="userSpaceOnUse">
<stop stop-color="#F80005"/>
<stop offset="1" stop-color="#A800E3"/>
</linearGradient>
<linearGradient id="paint51_linear_82_7335" x1="-103.679" y1="1788.96" x2="1561.52" y2="1644.42" gradientUnits="userSpaceOnUse">
<stop stop-color="#F80005"/>
<stop offset="1" stop-color="#A800E3"/>
</linearGradient>
<linearGradient id="paint52_linear_82_7335" x1="-103.679" y1="1788.96" x2="1561.52" y2="1644.42" gradientUnits="userSpaceOnUse">
<stop stop-color="#F80005"/>
<stop offset="1" stop-color="#A800E3"/>
</linearGradient>
<linearGradient id="paint53_linear_82_7335" x1="-103.679" y1="1788.96" x2="1561.52" y2="1644.42" gradientUnits="userSpaceOnUse">
<stop stop-color="#F80005"/>
<stop offset="1" stop-color="#A800E3"/>
</linearGradient>
<linearGradient id="paint54_linear_82_7335" x1="-103.679" y1="1788.96" x2="1561.52" y2="1644.42" gradientUnits="userSpaceOnUse">
<stop stop-color="#F80005"/>
<stop offset="1" stop-color="#A800E3"/>
</linearGradient>
<linearGradient id="paint55_linear_82_7335" x1="-103.679" y1="1788.96" x2="1561.52" y2="1644.42" gradientUnits="userSpaceOnUse">
<stop stop-color="#F80005"/>
<stop offset="1" stop-color="#A800E3"/>
</linearGradient>
<linearGradient id="paint56_linear_82_7335" x1="-103.679" y1="1788.96" x2="1561.52" y2="1644.42" gradientUnits="userSpaceOnUse">
<stop stop-color="#F80005"/>
<stop offset="1" stop-color="#A800E3"/>
</linearGradient>
<linearGradient id="paint57_linear_82_7335" x1="-103.679" y1="1788.96" x2="1561.52" y2="1644.42" gradientUnits="userSpaceOnUse">
<stop stop-color="#F80005"/>
<stop offset="1" stop-color="#A800E3"/>
</linearGradient>
<linearGradient id="paint58_linear_82_7335" x1="-103.679" y1="1788.96" x2="1561.52" y2="1644.42" gradientUnits="userSpaceOnUse">
<stop stop-color="#F80005"/>
<stop offset="1" stop-color="#A800E3"/>
</linearGradient>
<linearGradient id="paint59_linear_82_7335" x1="-103.679" y1="1788.96" x2="1561.52" y2="1644.42" gradientUnits="userSpaceOnUse">
<stop stop-color="#F80005"/>
<stop offset="1" stop-color="#A800E3"/>
</linearGradient>
<linearGradient id="paint60_linear_82_7335" x1="-95.3473" y1="1854.38" x2="1553.27" y2="1578.98" gradientUnits="userSpaceOnUse">
<stop stop-color="#F80005"/>
<stop offset="1" stop-color="#A800E3"/>
</linearGradient>
<linearGradient id="paint61_linear_82_7335" x1="-88.2587" y1="1891.49" x2="1546.22" y2="1541.86" gradientUnits="userSpaceOnUse">
<stop stop-color="#F80005"/>
<stop offset="1" stop-color="#A800E3"/>
</linearGradient>
<linearGradient id="paint62_linear_82_7335" x1="-67.6947" y1="1969.01" x2="1525.75" y2="1464.32" gradientUnits="userSpaceOnUse">
<stop stop-color="#F80005"/>
<stop offset="1" stop-color="#A800E3"/>
</linearGradient>
<linearGradient id="paint63_linear_82_7335" x1="-97.1881" y1="1842.92" x2="1555.09" y2="1590.45" gradientUnits="userSpaceOnUse">
<stop stop-color="#F80005"/>
<stop offset="1" stop-color="#A800E3"/>
</linearGradient>
<linearGradient id="paint64_linear_82_7335" x1="-100.444" y1="1819.49" x2="1558.32" y2="1613.88" gradientUnits="userSpaceOnUse">
<stop stop-color="#F80005"/>
<stop offset="1" stop-color="#A800E3"/>
</linearGradient>
<linearGradient id="paint65_linear_82_7335" x1="-101.03" y1="1814.09" x2="1557.37" y2="1607.21" gradientUnits="userSpaceOnUse">
<stop stop-color="#F80005"/>
<stop offset="1" stop-color="#A800E3"/>
</linearGradient>
<linearGradient id="paint66_linear_82_7335" x1="-103.021" y1="1796.11" x2="1560.88" y2="1637.27" gradientUnits="userSpaceOnUse">
<stop stop-color="#F80005"/>
<stop offset="1" stop-color="#A800E3"/>
</linearGradient>
<linearGradient id="paint67_linear_82_7335" x1="739" y1="967.5" x2="737" y2="1701" gradientUnits="userSpaceOnUse">
<stop stop-color="#1E1E1E"/>
<stop offset="1" stop-color="#1E1E1E" stop-opacity="0"/>
</linearGradient>
<linearGradient id="paint68_linear_82_7335" x1="-0.0613387" y1="1.49622" x2="1439.94" y2="179.496" gradientUnits="userSpaceOnUse">
<stop stop-color="#F80005"/>
<stop offset="1" stop-color="#A800E3"/>
</linearGradient>
<linearGradient id="paint69_linear_82_7335" x1="-0.0657436" y1="1.49566" x2="1439.93" y2="192.496" gradientUnits="userSpaceOnUse">
<stop stop-color="#F80005"/>
<stop offset="1" stop-color="#A800E3"/>
</linearGradient>
<linearGradient id="paint70_linear_82_7335" x1="-0.0697485" y1="1.49511" x2="1440.93" y2="204.495" gradientUnits="userSpaceOnUse">
<stop stop-color="#F80005"/>
<stop offset="1" stop-color="#A800E3"/>
</linearGradient>
<linearGradient id="paint71_linear_82_7335" x1="-0.074506" y1="1.49442" x2="1439.93" y2="218.494" gradientUnits="userSpaceOnUse">
<stop stop-color="#F80005"/>
<stop offset="1" stop-color="#A800E3"/>
</linearGradient>
<linearGradient id="paint72_linear_82_7335" x1="-0.0808656" y1="1.49342" x2="1439.92" y2="237.493" gradientUnits="userSpaceOnUse">
<stop stop-color="#F80005"/>
<stop offset="1" stop-color="#A800E3"/>
</linearGradient>
<linearGradient id="paint73_linear_82_7335" x1="-0.0868537" y1="1.4924" x2="1439.91" y2="255.492" gradientUnits="userSpaceOnUse">
<stop stop-color="#F80005"/>
<stop offset="1" stop-color="#A800E3"/>
</linearGradient>
<linearGradient id="paint74_linear_82_7335" x1="-0.0937911" y1="1.49112" x2="1439.91" y2="276.491" gradientUnits="userSpaceOnUse">
<stop stop-color="#F80005"/>
<stop offset="1" stop-color="#A800E3"/>
</linearGradient>
<linearGradient id="paint75_linear_82_7335" x1="-0.101325" y1="1.48963" x2="1439.9" y2="299.49" gradientUnits="userSpaceOnUse">
<stop stop-color="#F80005"/>
<stop offset="1" stop-color="#A800E3"/>
</linearGradient>
<linearGradient id="paint76_linear_82_7335" x1="-0.107172" y1="1.48838" x2="1439.89" y2="317.488" gradientUnits="userSpaceOnUse">
<stop stop-color="#F80005"/>
<stop offset="1" stop-color="#A800E3"/>
</linearGradient>
<linearGradient id="paint77_linear_82_7335" x1="-0.114896" y1="1.48662" x2="1439.89" y2="341.487" gradientUnits="userSpaceOnUse">
<stop stop-color="#F80005"/>
<stop offset="1" stop-color="#A800E3"/>
</linearGradient>
<linearGradient id="paint78_linear_82_7335" x1="-0.123799" y1="1.48443" x2="1439.88" y2="369.484" gradientUnits="userSpaceOnUse">
<stop stop-color="#F80005"/>
<stop offset="1" stop-color="#A800E3"/>
</linearGradient>
<linearGradient id="paint79_linear_82_7335" x1="-0.130708" y1="1.48261" x2="1439.87" y2="391.483" gradientUnits="userSpaceOnUse">
<stop stop-color="#F80005"/>
<stop offset="1" stop-color="#A800E3"/>
</linearGradient>
<linearGradient id="paint80_linear_82_7335" x1="-0.139078" y1="1.48027" x2="1439.86" y2="418.48" gradientUnits="userSpaceOnUse">
<stop stop-color="#F80005"/>
<stop offset="1" stop-color="#A800E3"/>
</linearGradient>
<linearGradient id="paint81_linear_82_7335" x1="1441.06" y1="1038.5" x2="1.06142" y2="860.504" gradientUnits="userSpaceOnUse">
<stop stop-color="#F80005"/>
<stop offset="1" stop-color="#A800E3"/>
</linearGradient>
<linearGradient id="paint82_linear_82_7335" x1="1441.07" y1="1038.5" x2="1.06569" y2="847.504" gradientUnits="userSpaceOnUse">
<stop stop-color="#F80005"/>
<stop offset="1" stop-color="#A800E3"/>
</linearGradient>
<linearGradient id="paint83_linear_82_7335" x1="1441.07" y1="1038.5" x2="0.0697098" y2="835.505" gradientUnits="userSpaceOnUse">
<stop stop-color="#F80005"/>
<stop offset="1" stop-color="#A800E3"/>
</linearGradient>
<linearGradient id="paint84_linear_82_7335" x1="1441.07" y1="1038.51" x2="1.07451" y2="821.506" gradientUnits="userSpaceOnUse">
<stop stop-color="#F80005"/>
<stop offset="1" stop-color="#A800E3"/>
</linearGradient>
<linearGradient id="paint85_linear_82_7335" x1="1441.08" y1="1038.51" x2="1.08085" y2="802.507" gradientUnits="userSpaceOnUse">
<stop stop-color="#F80005"/>
<stop offset="1" stop-color="#A800E3"/>
</linearGradient>
<linearGradient id="paint86_linear_82_7335" x1="1441.09" y1="1038.51" x2="1.08687" y2="784.508" gradientUnits="userSpaceOnUse">
<stop stop-color="#F80005"/>
<stop offset="1" stop-color="#A800E3"/>
</linearGradient>
<linearGradient id="paint87_linear_82_7335" x1="1441.09" y1="1038.51" x2="1.09379" y2="763.509" gradientUnits="userSpaceOnUse">
<stop stop-color="#F80005"/>
<stop offset="1" stop-color="#A800E3"/>
</linearGradient>
<linearGradient id="paint88_linear_82_7335" x1="1441.1" y1="1038.51" x2="1.1014" y2="740.51" gradientUnits="userSpaceOnUse">
<stop stop-color="#F80005"/>
<stop offset="1" stop-color="#A800E3"/>
</linearGradient>
<linearGradient id="paint89_linear_82_7335" x1="1441.11" y1="1038.51" x2="1.10715" y2="722.512" gradientUnits="userSpaceOnUse">
<stop stop-color="#F80005"/>
<stop offset="1" stop-color="#A800E3"/>
</linearGradient>
<linearGradient id="paint90_linear_82_7335" x1="1441.11" y1="1038.51" x2="1.11486" y2="698.513" gradientUnits="userSpaceOnUse">
<stop stop-color="#F80005"/>
<stop offset="1" stop-color="#A800E3"/>
</linearGradient>
<linearGradient id="paint91_linear_82_7335" x1="1441.12" y1="1038.52" x2="1.12386" y2="670.516" gradientUnits="userSpaceOnUse">
<stop stop-color="#F80005"/>
<stop offset="1" stop-color="#A800E3"/>
</linearGradient>
<linearGradient id="paint92_linear_82_7335" x1="1441.13" y1="1038.52" x2="1.13073" y2="648.517" gradientUnits="userSpaceOnUse">
<stop stop-color="#F80005"/>
<stop offset="1" stop-color="#A800E3"/>
</linearGradient>
<linearGradient id="paint93_linear_82_7335" x1="1441.14" y1="1038.52" x2="1.13904" y2="621.52" gradientUnits="userSpaceOnUse">
<stop stop-color="#F80005"/>
<stop offset="1" stop-color="#A800E3"/>
</linearGradient>
</defs>
</svg>
