<svg width="1434" height="1566" viewBox="0 0 1434 1566" fill="none" xmlns="http://www.w3.org/2000/svg">
<g clip-path="url(#clip0_82_7338)">
<path d="M537.969 1347.65C574.427 1354.64 988.956 1824.1 1438.95 1350.64L1438.95 3201.01L0.578978 3207.01L0.578979 1374.12C365.165 1310.2 517.492 1341.15 537.969 1347.65Z" fill="#1E1E1E"/>
<path d="M1484.75 1165.65C1370.06 1397.27 1045.58 1675.24 596.37 1370.95C484.876 1295.42 93.5025 1268.17 -349.477 1350.07" stroke="url(#paint0_linear_82_7338)" stroke-linecap="round"/>
<path d="M1468.64 1063.43C1380.62 1306.45 1089.36 1619.04 608.865 1367.01C489.608 1304.46 97.6454 1321.25 -333.363 1452.29" stroke="url(#paint1_linear_82_7338)" stroke-linecap="round"/>
<path d="M1486.49 1185.01C1366.94 1414.16 1036.68 1685.23 593.979 1371.53C484.102 1293.67 93.39 1258.17 -351.219 1330.71" stroke="url(#paint2_linear_82_7338)" stroke-linecap="round"/>
<path d="M1489.09 1280.86C1346.38 1496.35 989.741 1731.65 582.029 1373.65C480.835 1284.8 95.9255 1208.9 -353.814 1234.86" stroke="url(#paint3_linear_82_7338)" stroke-linecap="round"/>
<path d="M1489.38 1260.41C1351.47 1479.01 1000.15 1722.16 584.594 1373.3C481.454 1286.71 94.955 1219.37 -354.097 1255.31" stroke="url(#paint4_linear_82_7338)" stroke-linecap="round"/>
<path d="M1489.21 1240.01C1356.18 1461.62 1010.32 1712.48 587.143 1372.9C482.113 1288.61 94.2185 1229.84 -353.929 1275.7" stroke="url(#paint5_linear_82_7338)" stroke-linecap="round"/>
<path d="M1488.62 1220.54C1360.31 1444.9 1019.83 1703.02 589.572 1372.46C482.783 1290.41 93.7332 1239.85 -353.345 1295.18" stroke="url(#paint6_linear_82_7338)" stroke-linecap="round"/>
<path d="M1487.65 1201.4C1364.02 1428.38 1028.98 1693.52 591.949 1371.98C483.479 1292.17 93.4615 1249.71 -352.37 1314.32" stroke="url(#paint7_linear_82_7338)" stroke-linecap="round"/>
<path d="M1482.74 1147.46C1372.66 1381.31 1053.78 1665.67 598.61 1370.35C485.638 1297.06 93.8003 1277.58 -347.466 1368.26" stroke="url(#paint8_linear_82_7338)" stroke-linecap="round"/>
<path d="M1480.49 1130.14C1374.86 1366.03 1061.41 1656.38 600.735 1369.74C486.395 1298.6 94.2586 1286.55 -345.211 1385.57" stroke="url(#paint9_linear_82_7338)" stroke-linecap="round"/>
<path d="M1478.1 1114.13C1376.63 1351.85 1068.34 1647.65 602.695 1369.15C487.123 1300.02 94.8357 1294.86 -342.827 1401.58" stroke="url(#paint10_linear_82_7338)" stroke-linecap="round"/>
<path d="M1475.26 1097.17C1378.25 1336.73 1075.52 1638.24 604.766 1368.47C487.925 1301.52 95.6095 1303.67 -339.986 1418.55" stroke="url(#paint11_linear_82_7338)" stroke-linecap="round"/>
<path d="M1472.7 1083.33C1379.36 1324.35 1081.27 1630.45 606.451 1367.9C488.601 1302.73 96.3636 1310.88 -337.427 1432.39" stroke="url(#paint12_linear_82_7338)" stroke-linecap="round"/>
<path d="M1095.72 537.859L1095.72 966.126L1076.45 966.126L1076.45 537.001L1095.72 537.859ZM1095.72 537.859L1113.65 542.979L1113.65 565.565" stroke="url(#paint13_linear_82_7338)" stroke-linecap="round"/>
<path d="M1101.03 560.251C1132.25 626.015 1176.36 776.673 1166.79 962.14" stroke="url(#paint14_linear_82_7338)" stroke-linecap="round"/>
<path d="M1113.65 564.236C1144.87 630 1188.98 780.659 1179.42 966.126" stroke="url(#paint15_linear_82_7338)" stroke-linecap="round"/>
<path d="M1101.03 560.251L1113.65 564.901" stroke="url(#paint16_linear_82_7338)" stroke-linecap="round"/>
<path d="M1101.03 560.251L1101.03 584.829C1116.31 623.358 1157.76 745.452 1150.85 962.804" stroke="url(#paint17_linear_82_7338)" stroke-linecap="round"/>
<line x1="1127.09" y1="622.217" x2="1437.97" y2="723.188" stroke="url(#paint18_linear_82_7338)"/>
<line x1="1147.04" y1="666.068" x2="1438" y2="776.339" stroke="url(#paint19_linear_82_7338)"/>
<line x1="1152.37" y1="711.244" x2="1438.01" y2="828.157" stroke="url(#paint20_linear_82_7338)"/>
<line x1="1163.02" y1="755.094" x2="1438.03" y2="879.978" stroke="url(#paint21_linear_82_7338)"/>
<line x1="1168.34" y1="800.27" x2="1438.04" y2="930.469" stroke="url(#paint22_linear_82_7338)"/>
<line x1="1168.36" y1="844.12" x2="1434.07" y2="983.619" stroke="url(#paint23_linear_82_7338)"/>
<line x1="1175.02" y1="886.646" x2="1338.43" y2="983.631" stroke="url(#paint24_linear_82_7338)"/>
<line x1="1175.03" y1="930.493" x2="1261.38" y2="983.635" stroke="url(#paint25_linear_82_7338)"/>
<line x1="1101.83" y1="614.241" x2="1111.13" y2="616.898" stroke="url(#paint26_linear_82_7338)"/>
<line x1="1107.19" y1="652.783" x2="1124.46" y2="659.426" stroke="url(#paint27_linear_82_7338)"/>
<line x1="1108.54" y1="691.321" x2="1132.46" y2="701.95" stroke="url(#paint28_linear_82_7338)"/>
<line x1="1107.24" y1="728.534" x2="1140.45" y2="745.806" stroke="url(#paint29_linear_82_7338)"/>
<line x1="1108.59" y1="767.072" x2="1145.79" y2="788.329" stroke="url(#paint30_linear_82_7338)"/>
<line x1="1108.6" y1="806.934" x2="1148.45" y2="830.848" stroke="url(#paint31_linear_82_7338)"/>
<line x1="1108.59" y1="845.461" x2="1151.11" y2="870.704" stroke="url(#paint32_linear_82_7338)"/>
<line x1="1107.29" y1="884.003" x2="1151.13" y2="913.232" stroke="url(#paint33_linear_82_7338)"/>
<path d="M1436.49 1014.62C1120.29 989.152 454.819 943.936 322.494 966.788" stroke="url(#paint34_linear_82_7338)" stroke-linecap="round"/>
<line x1="1116.81" y1="629.336" x2="1116.81" y2="966.79" stroke="url(#paint35_linear_82_7338)"/>
<path d="M1435.83 982.732C1147.53 969.889 536.658 946.861 399.551 957.489" stroke="url(#paint36_linear_82_7338)" stroke-linecap="round"/>
<path d="M1435.83 982.732C1147.53 969.889 536.658 946.861 399.551 957.489" stroke="url(#paint37_linear_82_7338)" stroke-linecap="round"/>
<path d="M1439.81 1007.31C1119.85 982.733 469.301 948.19 401.545 959.484C431.305 939.822 1106.12 977.861 1439.81 999.339" stroke="url(#paint38_linear_82_7338)" stroke-linecap="round"/>
<path d="M1438.49 992.697C1101.92 976.533 423.599 947.26 402.873 959.483" stroke="url(#paint39_linear_82_7338)" stroke-linecap="round"/>
<path d="M1434.5 1045.17C1116.75 1013.51 457.742 953.901 363.68 968.781" stroke="url(#paint40_linear_82_7338)" stroke-linecap="round"/>
<path d="M561.635 972.769C562.521 987.604 563.363 1021.26 559.643 1037.2" stroke="url(#paint41_linear_82_7338)" stroke-linecap="round"/>
<path d="M1075.79 895.712L986.775 962.804" stroke="url(#paint42_linear_82_7338)" stroke-linecap="round"/>
<path d="M1074.46 891.062L981.461 961.476M1074.46 857.848L942.268 961.476M1074.46 852.534L937.618 961.476M1074.46 820.648L902.411 961.476M1075.79 815.334L897.761 961.476M1075.79 783.449L865.876 961.476M1075.79 778.799L861.226 961.476M1075.79 746.913L837.312 958.154M1075.79 739.606L829.341 961.476M1075.79 707.056L808.084 958.154M1074.46 703.735L804.098 958.154M1075.79 671.85L784.169 958.154M1075.79 665.207L777.527 958.154M1075.79 635.314L755.605 958.154L1075.79 628.671" stroke="url(#paint43_linear_82_7338)" stroke-linecap="round"/>
<path d="M693.164 950.183L568.943 806.034L688.514 950.183" stroke="url(#paint44_linear_82_7338)" stroke-linecap="round"/>
<path d="M571.6 821.977L675.892 950.183M673.234 950.183L568.943 821.977M568.943 835.927L657.956 950.183M653.97 950.183L568.943 837.92M571.6 854.527L644.67 951.512M640.02 951.512L568.943 854.527M568.943 869.805L630.721 950.183M623.413 950.183L568.278 871.134M617.435 950.183L568.943 885.084M612.121 950.183L568.278 885.084M601.492 947.526L568.943 903.019M588.207 947.526L568.943 917.633M558.314 817.327L488.677 948.717M487.9 950.183L488.677 948.717M556.321 828.62L488.677 948.717M554.328 839.248L496.536 950.183M554.328 848.548L495.207 950.183M554.328 862.498L505.836 950.183L554.328 859.177M554.328 874.455L511.814 951.512L554.328 879.105M552.336 891.062L519.122 948.717M552.336 898.369L521.114 950.183M552.336 907.669L528.421 947.526L550.343 917.633M550.343 925.605L535.064 948.717M550.343 930.255L539.05 948.717M550.343 938.89L545.693 947.526" stroke="url(#paint45_linear_82_7338)" stroke-linecap="round"/>
<path d="M564.293 767.506L562.3 946.861M564.293 767.506L574.921 767.506L572.929 946.861M564.293 767.506C558.314 814.005 547.155 914.976 550.343 946.861" stroke="url(#paint46_linear_82_7338)" stroke-linecap="round"/>
<path d="M1432.51 973.435C1144.43 959.928 549.013 936.899 471.957 952.842" stroke="url(#paint47_linear_82_7338)" stroke-linecap="round"/>
<path d="M1077.12 1011.96L1064.5 1249.11C1068.92 1254.87 1081.1 1265.85 1094.39 1263.72L1097.71 1011.96M1116.31 1015.28L1122.29 1126.22M1144.87 1017.94L1123.62 1129.54C1122.29 1142.82 1107.67 1150.66 1105.02 1123.56M1177.42 1023.92C1172.55 1090.12 1158.16 1229.98 1139.56 1259.74" stroke="url(#paint48_linear_82_7338)" stroke-linecap="round"/>
<path d="M1139.56 1259.74C1132.47 1262.39 1113.65 1266.91 1095.05 1263.72" stroke="url(#paint49_linear_82_7338)" stroke-linecap="round"/>
<path d="M1064.5 1241.8C1043.24 1244.24 998.333 1250.57 988.768 1256.42C1006.26 1268.37 1048.69 1292.29 1078.45 1292.29C1121.18 1284.32 1207.71 1267.18 1211.97 1262.39C1200.01 1255.09 1170.65 1239.94 1148.86 1237.82" stroke="url(#paint50_linear_82_7338)" stroke-linecap="round"/>
<path d="M572.265 972.769C573.594 996.24 576.251 1048.23 576.251 1068.42C569.342 1077.46 557.872 1073.07 553.001 1069.75C551.407 1063.38 550.565 1002.44 550.344 972.769" stroke="url(#paint51_linear_82_7338)" stroke-linecap="round"/>
<path d="M558.315 946.197L560.308 811.349C556.765 851.87 550.742 935.569 554.993 946.197" stroke="url(#paint52_linear_82_7338)" stroke-linecap="round"/>
<path d="M552.999 1070.42C541.707 1069.97 518.723 1070.28 517.128 1075.07C515.136 1081.04 610.792 1079.72 612.785 1073.74C614.379 1068.95 589.092 1068.2 576.249 1068.42" stroke="url(#paint53_linear_82_7338)" stroke-linecap="round"/>
<path d="M551.007 1067.77C535.064 1067.99 503.577 1069.63 505.172 1074.41L505.172 1083.71C529.75 1093.67 598.835 1089.69 620.756 1085.04L620.756 1072.42C598.171 1064.44 602.157 1066.44 576.914 1066.44" stroke="url(#paint54_linear_82_7338)" stroke-linecap="round"/>
<path d="M456.015 969.447L460.665 973.399M509.158 969.447L495.208 980.075L495.872 1037.87L518.458 1042.52C504.641 1046.24 462.658 1044.07 443.394 1042.52L468.637 1037.87L469.301 980.74L460.665 973.399M460.665 973.399L454.022 976.754L454.022 1028.57M417.487 967.454L434.094 976.754L434.094 1028.57M428.78 974.761L424.13 976.754L424.13 1026.57L404.866 1026.57L404.866 976.754L402.019 974.761L400.073 973.399M391.58 967.454L400.073 973.399M400.073 973.399L400.073 1018.6L382.28 1018.6L382.28 976.754L379.623 974.761M371.652 968.783L379.623 974.761M379.623 974.761L379.623 1010.63L364.345 1010.63L364.345 969.447C347.738 971.44 311.468 971.971 301.902 971.44" stroke="url(#paint55_linear_82_7338)" stroke-linecap="round"/>
<path d="M350.395 971.44L350.395 998.675M363.017 1003.99L350.395 1003.99L350.395 998.675M336.445 971.44L336.445 998.675L350.395 998.675" stroke="url(#paint56_linear_82_7338)" stroke-linecap="round"/>
<path d="M325.151 972.769L325.151 991.368M335.78 994.69L325.151 994.69L325.151 991.368M315.852 972.769L315.852 991.368L325.151 991.368" stroke="url(#paint57_linear_82_7338)" stroke-linecap="round"/>
<path d="M1178.75 928.926L1265.11 982.068M1151.52 908.997L1107.67 883.755M1178.09 885.083L1341.5 982.068M1151.52 873.791L1107.67 848.548M1176.09 842.569L1433.17 980.075M1171.44 798.727L1437.16 932.911M1161.48 758.87L1439.15 883.091M1437.16 825.962L1154.17 709.713M1146.87 670.521L1437.16 778.134" stroke="url(#paint58_linear_82_7338)" stroke-linecap="round"/>
<path d="M1107.01 810.02L1148.2 827.291M1107.01 771.492L1144.87 790.756" stroke="url(#paint59_linear_82_7338)" stroke-linecap="round"/>
<path d="M1107.67 732.299L1140.22 748.242" stroke="url(#paint60_linear_82_7338)" stroke-linecap="round"/>
<path d="M1064.49 1230.51C1031.28 1232.5 963.524 1243.79 963.524 1249.11M963.524 1249.11C966.181 1268.37 1030.09 1300.92 1081.1 1298.27C1158.82 1288.3 1221.53 1272.09 1230.56 1260.4M963.524 1249.11C960.424 1251.1 954.756 1259.21 956.881 1275.68C974.374 1292.07 1023.71 1324.97 1081.1 1325.5C1124.68 1322.84 1205.1 1302.69 1239.86 1292.95C1241.46 1270.1 1234.33 1261.73 1230.56 1260.4M1230.56 1260.4C1219.27 1247.78 1167.33 1230.51 1150.85 1230.51" stroke="url(#paint61_linear_82_7338)" stroke-linecap="round"/>
<path d="M-0.0976568 725.001L1439.9 56.501L1439.9 1325L-0.0976574 1325L-0.0976568 725.001Z" fill="url(#paint62_linear_82_7338)" fill-opacity="0.7"/>
<line y1="-0.5" x2="2217.03" y2="-0.5" transform="matrix(-0.910771 0.412911 0.361161 0.932503 1751.91 -85.2522)" stroke="url(#paint63_linear_82_7338)"/>
<line y1="-0.5" x2="2280.51" y2="-0.5" transform="matrix(-0.923807 0.382859 0.330101 0.943946 1751.91 -85.2522)" stroke="url(#paint64_linear_82_7338)"/>
<line y1="-0.5" x2="2362.5" y2="-0.5" transform="matrix(-0.937742 0.347332 0.293757 0.95588 1751.91 -85.2522)" stroke="url(#paint65_linear_82_7338)"/>
<line y1="-0.5" x2="2434.09" y2="-0.5" transform="matrix(-0.947779 0.318928 0.264986 0.964252 1751.91 -85.2522)" stroke="url(#paint66_linear_82_7338)"/>
<line y1="-0.5" x2="2488.95" y2="-0.5" transform="matrix(-0.954376 0.298606 0.244554 0.969636 1751.91 -85.2522)" stroke="url(#paint67_linear_82_7338)"/>
<line y1="-0.5" x2="2569.92" y2="-0.5" transform="matrix(-0.962679 0.270647 0.216647 0.97625 1751.91 -85.2522)" stroke="url(#paint68_linear_82_7338)"/>
<line y1="-0.5" x2="2533.3" y2="-0.5" transform="matrix(-0.959117 0.283009 0.228957 0.973436 1751.91 -85.2522)" stroke="url(#paint69_linear_82_7338)"/>
<line y1="-0.5" x2="2458.11" y2="-0.5" transform="matrix(-0.950877 0.309569 0.255561 0.966793 1751.91 -85.2522)" stroke="url(#paint70_linear_82_7338)"/>
<line y1="-0.5" x2="2318.04" y2="-0.5" transform="matrix(-0.93055 0.366165 0.312973 0.949762 1751.91 -85.2522)" stroke="url(#paint71_linear_82_7338)"/>
<line y1="-0.5" x2="2248.83" y2="-0.5" transform="matrix(-0.917579 0.397554 0.345252 0.93851 1751.91 -85.2522)" stroke="url(#paint72_linear_82_7338)"/>
<line y1="-0.5" x2="2396.05" y2="-0.5" transform="matrix(-0.942666 0.333736 0.279955 0.960013 1751.91 -85.2522)" stroke="url(#paint73_linear_82_7338)"/>
</g>
<defs>
<linearGradient id="paint0_linear_82_7338" x1="1613.52" y1="1182.55" x2="1135.04" y2="2210.93" gradientUnits="userSpaceOnUse">
<stop stop-color="#F80005"/>
<stop offset="1" stop-color="#A800E3"/>
</linearGradient>
<linearGradient id="paint1_linear_82_7338" x1="1598.49" y1="1065.79" x2="1238.29" y2="2141.33" gradientUnits="userSpaceOnUse">
<stop stop-color="#F80005"/>
<stop offset="1" stop-color="#A800E3"/>
</linearGradient>
<linearGradient id="paint2_linear_82_7338" x1="1614.88" y1="1204.63" x2="1114.82" y2="2222.69" gradientUnits="userSpaceOnUse">
<stop stop-color="#F80005"/>
<stop offset="1" stop-color="#A800E3"/>
</linearGradient>
<linearGradient id="paint3_linear_82_7338" x1="1614.74" y1="1313.71" x2="1011.62" y2="2274.31" gradientUnits="userSpaceOnUse">
<stop stop-color="#F80005"/>
<stop offset="1" stop-color="#A800E3"/>
</linearGradient>
<linearGradient id="paint4_linear_82_7338" x1="1615.72" y1="1290.46" x2="1034.06" y2="2264.21" gradientUnits="userSpaceOnUse">
<stop stop-color="#F80005"/>
<stop offset="1" stop-color="#A800E3"/>
</linearGradient>
<linearGradient id="paint5_linear_82_7338" x1="1616.19" y1="1267.26" x2="1056.22" y2="2253.64" gradientUnits="userSpaceOnUse">
<stop stop-color="#F80005"/>
<stop offset="1" stop-color="#A800E3"/>
</linearGradient>
<linearGradient id="paint6_linear_82_7338" x1="1616.15" y1="1245.09" x2="1077.16" y2="2243.09" gradientUnits="userSpaceOnUse">
<stop stop-color="#F80005"/>
<stop offset="1" stop-color="#A800E3"/>
</linearGradient>
<linearGradient id="paint7_linear_82_7338" x1="1615.66" y1="1223.3" x2="1097.53" y2="2232.28" gradientUnits="userSpaceOnUse">
<stop stop-color="#F80005"/>
<stop offset="1" stop-color="#A800E3"/>
</linearGradient>
<linearGradient id="paint8_linear_82_7338" x1="1611.82" y1="1161.8" x2="1153.85" y2="2199.48" gradientUnits="userSpaceOnUse">
<stop stop-color="#F80005"/>
<stop offset="1" stop-color="#A800E3"/>
</linearGradient>
<linearGradient id="paint9_linear_82_7338" x1="1609.81" y1="1142.03" x2="1171.58" y2="2188.2" gradientUnits="userSpaceOnUse">
<stop stop-color="#F80005"/>
<stop offset="1" stop-color="#A800E3"/>
</linearGradient>
<linearGradient id="paint10_linear_82_7338" x1="1607.62" y1="1123.75" x2="1187.82" y2="2177.45" gradientUnits="userSpaceOnUse">
<stop stop-color="#F80005"/>
<stop offset="1" stop-color="#A800E3"/>
</linearGradient>
<linearGradient id="paint11_linear_82_7338" x1="1604.94" y1="1104.37" x2="1204.88" y2="2165.72" gradientUnits="userSpaceOnUse">
<stop stop-color="#F80005"/>
<stop offset="1" stop-color="#A800E3"/>
</linearGradient>
<linearGradient id="paint12_linear_82_7338" x1="1602.47" y1="1088.55" x2="1218.67" y2="2155.88" gradientUnits="userSpaceOnUse">
<stop stop-color="#F80005"/>
<stop offset="1" stop-color="#A800E3"/>
</linearGradient>
<linearGradient id="paint13_linear_82_7338" x1="1073.76" y1="537.001" x2="1151.73" y2="542.045" gradientUnits="userSpaceOnUse">
<stop stop-color="#F80005"/>
<stop offset="1" stop-color="#A800E3"/>
</linearGradient>
<linearGradient id="paint14_linear_82_7338" x1="1096.18" y1="560.251" x2="1235.24" y2="577.575" gradientUnits="userSpaceOnUse">
<stop stop-color="#F80005"/>
<stop offset="1" stop-color="#A800E3"/>
</linearGradient>
<linearGradient id="paint15_linear_82_7338" x1="1108.8" y1="564.236" x2="1247.86" y2="581.56" gradientUnits="userSpaceOnUse">
<stop stop-color="#F80005"/>
<stop offset="1" stop-color="#A800E3"/>
</linearGradient>
<linearGradient id="paint16_linear_82_7338" x1="1100.12" y1="560.251" x2="1105.32" y2="570.797" gradientUnits="userSpaceOnUse">
<stop stop-color="#F80005"/>
<stop offset="1" stop-color="#A800E3"/>
</linearGradient>
<linearGradient id="paint17_linear_82_7338" x1="1097.37" y1="560.251" x2="1202.93" y2="570.15" gradientUnits="userSpaceOnUse">
<stop stop-color="#F80005"/>
<stop offset="1" stop-color="#A800E3"/>
</linearGradient>
<linearGradient id="paint18_linear_82_7338" x1="1104.44" y1="615.386" x2="1103.58" y2="618.072" gradientUnits="userSpaceOnUse">
<stop stop-color="#F80005"/>
<stop offset="1" stop-color="#A800E3"/>
</linearGradient>
<linearGradient id="paint19_linear_82_7338" x1="1125.81" y1="658.556" x2="1124.82" y2="661.198" gradientUnits="userSpaceOnUse">
<stop stop-color="#F80005"/>
<stop offset="1" stop-color="#A800E3"/>
</linearGradient>
<linearGradient id="paint20_linear_82_7338" x1="1131.51" y1="703.246" x2="1130.45" y2="705.861" gradientUnits="userSpaceOnUse">
<stop stop-color="#F80005"/>
<stop offset="1" stop-color="#A800E3"/>
</linearGradient>
<linearGradient id="paint21_linear_82_7338" x1="1142.91" y1="746.511" x2="1141.75" y2="749.085" gradientUnits="userSpaceOnUse">
<stop stop-color="#F80005"/>
<stop offset="1" stop-color="#A800E3"/>
</linearGradient>
<linearGradient id="paint22_linear_82_7338" x1="1148.61" y1="791.298" x2="1147.39" y2="793.844" gradientUnits="userSpaceOnUse">
<stop stop-color="#F80005"/>
<stop offset="1" stop-color="#A800E3"/>
</linearGradient>
<linearGradient id="paint23_linear_82_7338" x1="1148.89" y1="834.467" x2="1147.59" y2="836.971" gradientUnits="userSpaceOnUse">
<stop stop-color="#F80005"/>
<stop offset="1" stop-color="#A800E3"/>
</linearGradient>
<linearGradient id="paint24_linear_82_7338" x1="1162.94" y1="880.058" x2="1161.52" y2="882.493" gradientUnits="userSpaceOnUse">
<stop stop-color="#F80005"/>
<stop offset="1" stop-color="#A800E3"/>
</linearGradient>
<linearGradient id="paint25_linear_82_7338" x1="1168.52" y1="927.073" x2="1167.07" y2="929.495" gradientUnits="userSpaceOnUse">
<stop stop-color="#F80005"/>
<stop offset="1" stop-color="#A800E3"/>
</linearGradient>
<linearGradient id="paint26_linear_82_7338" x1="1101.02" y1="614.529" x2="1100.63" y2="617.296" gradientUnits="userSpaceOnUse">
<stop stop-color="#F80005"/>
<stop offset="1" stop-color="#A800E3"/>
</linearGradient>
<linearGradient id="paint27_linear_82_7338" x1="1105.76" y1="652.769" x2="1104.94" y2="655.461" gradientUnits="userSpaceOnUse">
<stop stop-color="#F80005"/>
<stop offset="1" stop-color="#A800E3"/>
</linearGradient>
<linearGradient id="paint28_linear_82_7338" x1="1106.61" y1="691.009" x2="1105.6" y2="693.639" gradientUnits="userSpaceOnUse">
<stop stop-color="#F80005"/>
<stop offset="1" stop-color="#A800E3"/>
</linearGradient>
<linearGradient id="paint29_linear_82_7338" x1="1104.61" y1="727.728" x2="1103.4" y2="730.274" gradientUnits="userSpaceOnUse">
<stop stop-color="#F80005"/>
<stop offset="1" stop-color="#A800E3"/>
</linearGradient>
<linearGradient id="paint30_linear_82_7338" x1="1105.65" y1="765.968" x2="1104.32" y2="768.458" gradientUnits="userSpaceOnUse">
<stop stop-color="#F80005"/>
<stop offset="1" stop-color="#A800E3"/>
</linearGradient>
<linearGradient id="paint31_linear_82_7338" x1="1105.45" y1="805.632" x2="1104.07" y2="808.091" gradientUnits="userSpaceOnUse">
<stop stop-color="#F80005"/>
<stop offset="1" stop-color="#A800E3"/>
</linearGradient>
<linearGradient id="paint32_linear_82_7338" x1="1105.26" y1="844.064" x2="1103.89" y2="846.527" gradientUnits="userSpaceOnUse">
<stop stop-color="#F80005"/>
<stop offset="1" stop-color="#A800E3"/>
</linearGradient>
<linearGradient id="paint33_linear_82_7338" x1="1103.84" y1="882.304" x2="1102.33" y2="884.69" gradientUnits="userSpaceOnUse">
<stop stop-color="#F80005"/>
<stop offset="1" stop-color="#A800E3"/>
</linearGradient>
<linearGradient id="paint34_linear_82_7338" x1="241.877" y1="960.531" x2="251.761" y2="1112.45" gradientUnits="userSpaceOnUse">
<stop stop-color="#F80005"/>
<stop offset="1" stop-color="#A800E3"/>
</linearGradient>
<linearGradient id="paint35_linear_82_7338" x1="1116.31" y1="604.915" x2="1113.49" y2="604.927" gradientUnits="userSpaceOnUse">
<stop stop-color="#F80005"/>
<stop offset="1" stop-color="#A800E3"/>
</linearGradient>
<linearGradient id="paint36_linear_82_7338" x1="324.558" y1="954.766" x2="327.408" y2="1033.55" gradientUnits="userSpaceOnUse">
<stop stop-color="#F80005"/>
<stop offset="1" stop-color="#A800E3"/>
</linearGradient>
<linearGradient id="paint37_linear_82_7338" x1="324.558" y1="954.766" x2="327.408" y2="1033.55" gradientUnits="userSpaceOnUse">
<stop stop-color="#F80005"/>
<stop offset="1" stop-color="#A800E3"/>
</linearGradient>
<linearGradient id="paint38_linear_82_7338" x1="326.408" y1="954.013" x2="336.702" y2="1103.65" gradientUnits="userSpaceOnUse">
<stop stop-color="#F80005"/>
<stop offset="1" stop-color="#A800E3"/>
</linearGradient>
<linearGradient id="paint39_linear_82_7338" x1="327.929" y1="956.577" x2="332.681" y2="1058.24" gradientUnits="userSpaceOnUse">
<stop stop-color="#F80005"/>
<stop offset="1" stop-color="#A800E3"/>
</linearGradient>
<linearGradient id="paint40_linear_82_7338" x1="286.188" y1="966.437" x2="307.862" y2="1186.39" gradientUnits="userSpaceOnUse">
<stop stop-color="#F80005"/>
<stop offset="1" stop-color="#A800E3"/>
</linearGradient>
<linearGradient id="paint41_linear_82_7338" x1="559.443" y1="972.769" x2="565.23" y2="972.953" gradientUnits="userSpaceOnUse">
<stop stop-color="#F80005"/>
<stop offset="1" stop-color="#A800E3"/>
</linearGradient>
<linearGradient id="paint42_linear_82_7338" x1="980.334" y1="895.712" x2="1074.95" y2="989.387" gradientUnits="userSpaceOnUse">
<stop stop-color="#F80005"/>
<stop offset="1" stop-color="#A800E3"/>
</linearGradient>
<linearGradient id="paint43_linear_82_7338" x1="732.435" y1="628.671" x2="1177.16" y2="947.944" gradientUnits="userSpaceOnUse">
<stop stop-color="#F80005"/>
<stop offset="1" stop-color="#A800E3"/>
</linearGradient>
<linearGradient id="paint44_linear_82_7338" x1="559.954" y1="806.034" x2="744.93" y2="924.982" gradientUnits="userSpaceOnUse">
<stop stop-color="#F80005"/>
<stop offset="1" stop-color="#A800E3"/>
</linearGradient>
<linearGradient id="paint45_linear_82_7338" x1="474.296" y1="817.327" x2="663.36" y2="1014.98" gradientUnits="userSpaceOnUse">
<stop stop-color="#F80005"/>
<stop offset="1" stop-color="#A800E3"/>
</linearGradient>
<linearGradient id="paint46_linear_82_7338" x1="547.962" y1="767.506" x2="600.305" y2="772.981" gradientUnits="userSpaceOnUse">
<stop stop-color="#F80005"/>
<stop offset="1" stop-color="#A800E3"/>
</linearGradient>
<linearGradient id="paint47_linear_82_7338" x1="402.445" y1="947.427" x2="405.103" y2="1020.69" gradientUnits="userSpaceOnUse">
<stop stop-color="#F80005"/>
<stop offset="1" stop-color="#A800E3"/>
</linearGradient>
<linearGradient id="paint48_linear_82_7338" x1="1056.32" y1="1011.96" x2="1270.12" y2="1083.44" gradientUnits="userSpaceOnUse">
<stop stop-color="#F80005"/>
<stop offset="1" stop-color="#A800E3"/>
</linearGradient>
<linearGradient id="paint49_linear_82_7338" x1="1091.83" y1="1259.74" x2="1093.98" y2="1273.75" gradientUnits="userSpaceOnUse">
<stop stop-color="#F80005"/>
<stop offset="1" stop-color="#A800E3"/>
</linearGradient>
<linearGradient id="paint50_linear_82_7338" x1="972.615" y1="1237.82" x2="1018.01" y2="1376.62" gradientUnits="userSpaceOnUse">
<stop stop-color="#F80005"/>
<stop offset="1" stop-color="#A800E3"/>
</linearGradient>
<linearGradient id="paint51_linear_82_7338" x1="548.469" y1="972.769" x2="601.073" y2="982.835" gradientUnits="userSpaceOnUse">
<stop stop-color="#F80005"/>
<stop offset="1" stop-color="#A800E3"/>
</linearGradient>
<linearGradient id="paint52_linear_82_7338" x1="553.041" y1="811.349" x2="567.284" y2="811.883" gradientUnits="userSpaceOnUse">
<stop stop-color="#F80005"/>
<stop offset="1" stop-color="#A800E3"/>
</linearGradient>
<linearGradient id="paint53_linear_82_7338" x1="510.168" y1="1068.39" x2="514.469" y2="1097.52" gradientUnits="userSpaceOnUse">
<stop stop-color="#F80005"/>
<stop offset="1" stop-color="#A800E3"/>
</linearGradient>
<linearGradient id="paint54_linear_82_7338" x1="496.745" y1="1066.21" x2="513.794" y2="1128.34" gradientUnits="userSpaceOnUse">
<stop stop-color="#F80005"/>
<stop offset="1" stop-color="#A800E3"/>
</linearGradient>
<linearGradient id="paint55_linear_82_7338" x1="286.231" y1="967.454" x2="370.785" y2="1144.63" gradientUnits="userSpaceOnUse">
<stop stop-color="#F80005"/>
<stop offset="1" stop-color="#A800E3"/>
</linearGradient>
<linearGradient id="paint56_linear_82_7338" x1="334.522" y1="971.44" x2="375.315" y2="996.288" gradientUnits="userSpaceOnUse">
<stop stop-color="#F80005"/>
<stop offset="1" stop-color="#A800E3"/>
</linearGradient>
<linearGradient id="paint57_linear_82_7338" x1="314.409" y1="972.769" x2="343.136" y2="992.256" gradientUnits="userSpaceOnUse">
<stop stop-color="#F80005"/>
<stop offset="1" stop-color="#A800E3"/>
</linearGradient>
<linearGradient id="paint58_linear_82_7338" x1="1083.69" y1="670.521" x2="1511.64" y2="1010.29" gradientUnits="userSpaceOnUse">
<stop stop-color="#F80005"/>
<stop offset="1" stop-color="#A800E3"/>
</linearGradient>
<linearGradient id="paint59_linear_82_7338" x1="1104.03" y1="771.492" x2="1170.54" y2="808.125" gradientUnits="userSpaceOnUse">
<stop stop-color="#F80005"/>
<stop offset="1" stop-color="#A800E3"/>
</linearGradient>
<linearGradient id="paint60_linear_82_7338" x1="1105.32" y1="732.299" x2="1125.95" y2="763.729" gradientUnits="userSpaceOnUse">
<stop stop-color="#F80005"/>
<stop offset="1" stop-color="#A800E3"/>
</linearGradient>
<linearGradient id="paint61_linear_82_7338" x1="935.887" y1="1230.51" x2="1035.97" y2="1453.54" gradientUnits="userSpaceOnUse">
<stop stop-color="#F80005"/>
<stop offset="1" stop-color="#A800E3"/>
</linearGradient>
<linearGradient id="paint62_linear_82_7338" x1="719.902" y1="56.501" x2="719.902" y2="1325" gradientUnits="userSpaceOnUse">
<stop stop-color="#1E1E1E"/>
<stop offset="0.505" stop-color="#1E1E1E" stop-opacity="0.92"/>
<stop offset="1" stop-color="#1E1E1E" stop-opacity="0"/>
</linearGradient>
<linearGradient id="paint63_linear_82_7338" x1="0" y1="0.5" x2="2217.03" y2="0.5" gradientUnits="userSpaceOnUse">
<stop stop-color="#F80005"/>
<stop offset="1" stop-color="#A800E3"/>
</linearGradient>
<linearGradient id="paint64_linear_82_7338" x1="0" y1="0.5" x2="2280.51" y2="0.5" gradientUnits="userSpaceOnUse">
<stop stop-color="#F80005"/>
<stop offset="1" stop-color="#A800E3"/>
</linearGradient>
<linearGradient id="paint65_linear_82_7338" x1="0" y1="0.5" x2="2362.5" y2="0.5" gradientUnits="userSpaceOnUse">
<stop stop-color="#F80005"/>
<stop offset="1" stop-color="#A800E3"/>
</linearGradient>
<linearGradient id="paint66_linear_82_7338" x1="0" y1="0.5" x2="2434.09" y2="0.5" gradientUnits="userSpaceOnUse">
<stop stop-color="#F80005"/>
<stop offset="1" stop-color="#A800E3"/>
</linearGradient>
<linearGradient id="paint67_linear_82_7338" x1="0" y1="0.5" x2="2488.95" y2="0.5" gradientUnits="userSpaceOnUse">
<stop stop-color="#F80005"/>
<stop offset="1" stop-color="#A800E3"/>
</linearGradient>
<linearGradient id="paint68_linear_82_7338" x1="0" y1="0.5" x2="2569.92" y2="0.5" gradientUnits="userSpaceOnUse">
<stop stop-color="#F80005"/>
<stop offset="1" stop-color="#A800E3"/>
</linearGradient>
<linearGradient id="paint69_linear_82_7338" x1="0" y1="0.5" x2="2533.3" y2="0.5" gradientUnits="userSpaceOnUse">
<stop stop-color="#F80005"/>
<stop offset="1" stop-color="#A800E3"/>
</linearGradient>
<linearGradient id="paint70_linear_82_7338" x1="0" y1="0.5" x2="2458.11" y2="0.5" gradientUnits="userSpaceOnUse">
<stop stop-color="#F80005"/>
<stop offset="1" stop-color="#A800E3"/>
</linearGradient>
<linearGradient id="paint71_linear_82_7338" x1="0" y1="0.5" x2="2318.04" y2="0.5" gradientUnits="userSpaceOnUse">
<stop stop-color="#F80005"/>
<stop offset="1" stop-color="#A800E3"/>
</linearGradient>
<linearGradient id="paint72_linear_82_7338" x1="0" y1="0.5" x2="2248.83" y2="0.5" gradientUnits="userSpaceOnUse">
<stop stop-color="#F80005"/>
<stop offset="1" stop-color="#A800E3"/>
</linearGradient>
<linearGradient id="paint73_linear_82_7338" x1="0" y1="0.5" x2="2396.05" y2="0.5" gradientUnits="userSpaceOnUse">
<stop stop-color="#F80005"/>
<stop offset="1" stop-color="#A800E3"/>
</linearGradient>
<clipPath id="clip0_82_7338">
<rect width="1434" height="1566" fill="white"/>
</clipPath>
</defs>
</svg>
