<svg width="1140" height="790" viewBox="0 0 1140 790" fill="none" xmlns="http://www.w3.org/2000/svg">
<path d="M794.815 1.85818V430.125H775.551V1L794.815 1.85818ZM794.815 1.85818L812.75 6.97852V29.564" stroke="url(#paint0_linear_78_6575)" stroke-linecap="round"/>
<path d="M800.129 24.25C831.35 90.0137 875.458 240.672 865.893 426.139" stroke="url(#paint1_linear_78_6575)" stroke-linecap="round"/>
<path d="M812.75 28.2354C843.971 93.999 888.079 244.658 878.514 430.125" stroke="url(#paint2_linear_78_6575)" stroke-linecap="round"/>
<path d="M800.129 24.25L812.75 28.9" stroke="url(#paint3_linear_78_6575)" stroke-linecap="round"/>
<path d="M800.129 24.25V48.8283C815.407 87.3566 856.858 209.451 849.95 426.803" stroke="url(#paint4_linear_78_6575)" stroke-linecap="round"/>
<line x1="826.19" y1="86.2163" x2="1137.07" y2="187.187" stroke="url(#paint5_linear_78_6575)"/>
<line x1="846.14" y1="130.067" x2="1137.09" y2="240.338" stroke="url(#paint6_linear_78_6575)"/>
<line x1="851.467" y1="175.243" x2="1137.11" y2="292.156" stroke="url(#paint7_linear_78_6575)"/>
<line x1="862.113" y1="219.093" x2="1137.12" y2="343.977" stroke="url(#paint8_linear_78_6575)"/>
<line x1="867.438" y1="264.269" x2="1137.14" y2="394.468" stroke="url(#paint9_linear_78_6575)"/>
<line x1="867.453" y1="308.119" x2="1133.17" y2="447.618" stroke="url(#paint10_linear_78_6575)"/>
<line x1="874.118" y1="350.645" x2="1037.53" y2="447.63" stroke="url(#paint11_linear_78_6575)"/>
<line x1="874.125" y1="394.492" x2="960.482" y2="447.635" stroke="url(#paint12_linear_78_6575)"/>
<line x1="800.93" y1="78.2399" x2="810.23" y2="80.8971" stroke="url(#paint13_linear_78_6575)"/>
<line x1="806.287" y1="116.782" x2="823.558" y2="123.425" stroke="url(#paint14_linear_78_6575)"/>
<line x1="807.639" y1="155.32" x2="831.553" y2="165.949" stroke="url(#paint15_linear_78_6575)"/>
<line x1="806.338" y1="192.533" x2="839.552" y2="209.805" stroke="url(#paint16_linear_78_6575)"/>
<line x1="807.684" y1="231.071" x2="844.883" y2="252.328" stroke="url(#paint17_linear_78_6575)"/>
<line x1="807.693" y1="270.933" x2="847.55" y2="294.847" stroke="url(#paint18_linear_78_6575)"/>
<line x1="807.691" y1="309.46" x2="850.205" y2="334.703" stroke="url(#paint19_linear_78_6575)"/>
<line x1="806.385" y1="348.002" x2="850.227" y2="377.231" stroke="url(#paint20_linear_78_6575)"/>
<path d="M1135.59 478.615C819.392 453.151 153.916 407.935 21.5918 430.787" stroke="url(#paint21_linear_78_6575)" stroke-linecap="round"/>
<line x1="815.906" y1="93.335" x2="815.906" y2="430.789" stroke="url(#paint22_linear_78_6575)"/>
<path d="M1134.92 446.731C846.627 433.888 235.756 410.86 98.6484 421.488" stroke="url(#paint23_linear_78_6575)" stroke-linecap="round"/>
<path d="M1134.92 446.731C846.627 433.888 235.756 410.86 98.6484 421.488" stroke="url(#paint24_linear_78_6575)" stroke-linecap="round"/>
<path d="M1138.91 471.31C818.95 446.732 168.399 412.189 100.643 423.482C130.402 403.821 805.222 441.86 1138.91 463.337" stroke="url(#paint25_linear_78_6575)" stroke-linecap="round"/>
<path d="M1137.58 456.696C801.014 440.532 122.696 411.259 101.971 423.482" stroke="url(#paint26_linear_78_6575)" stroke-linecap="round"/>
<path d="M1133.6 509.172C815.849 477.508 156.839 417.9 62.7773 432.78" stroke="url(#paint27_linear_78_6575)" stroke-linecap="round"/>
<path d="M260.733 436.768C261.619 451.603 262.46 485.26 258.74 501.203" stroke="url(#paint28_linear_78_6575)" stroke-linecap="round"/>
<path d="M774.887 359.711L685.873 426.803" stroke="url(#paint29_linear_78_6575)" stroke-linecap="round"/>
<path d="M773.557 355.061L680.558 425.475M773.557 321.847L641.366 425.475M773.557 316.533L636.716 425.475M773.557 284.647L601.509 425.475M774.886 279.333L596.859 425.475M774.886 247.448L564.974 425.475M774.886 242.798L560.324 425.475M774.886 210.912L536.41 422.153M774.886 203.605L528.438 425.475M774.886 171.055L507.181 422.153M773.557 167.734L503.196 422.153M774.886 135.849L483.267 422.153M774.886 129.206L476.624 422.153M774.886 99.3132L454.703 422.153L774.886 92.6704" stroke="url(#paint30_linear_78_6575)" stroke-linecap="round"/>
<path d="M392.261 414.182L268.041 270.033L387.611 414.182" stroke="url(#paint31_linear_78_6575)" stroke-linecap="round"/>
<path d="M270.697 285.976L374.989 414.182M372.332 414.182L268.04 285.976M268.04 299.926L357.054 414.182M353.068 414.182L268.04 301.919M270.697 318.526L343.768 415.511M339.118 415.511L268.04 318.526M268.04 333.804L329.818 414.182M322.511 414.182L267.376 335.133M316.533 414.182L268.04 349.083M311.218 414.182L267.376 349.083M300.59 411.525L268.04 367.018M287.304 411.525L268.04 381.632M257.412 281.326L187.775 412.716M186.998 414.182L187.775 412.716M255.419 292.619L187.775 412.716M253.426 303.247L195.634 414.182M253.426 312.547L194.305 414.182M253.426 326.497L204.934 414.182L253.426 323.176M253.426 338.454L210.912 415.511L253.426 343.104M251.433 355.061L218.219 412.716M251.433 362.368L220.212 414.182M251.433 371.668L227.519 411.525L249.44 381.632M249.44 389.604L234.162 412.716M249.44 394.254L238.148 412.716M249.44 402.889L244.79 411.525" stroke="url(#paint32_linear_78_6575)" stroke-linecap="round"/>
<path d="M263.391 231.505L261.398 410.86M263.391 231.505H274.019L272.026 410.86M263.391 231.505C257.412 278.004 246.252 378.975 249.441 410.86" stroke="url(#paint33_linear_78_6575)" stroke-linecap="round"/>
<path d="M1131.6 437.434C843.527 423.927 248.111 400.898 171.055 416.841" stroke="url(#paint34_linear_78_6575)" stroke-linecap="round"/>
<path d="M776.215 475.96L763.594 713.108C768.022 718.865 780.201 729.848 793.486 727.722L796.808 475.96M815.408 479.281L821.386 590.216M843.972 481.938L822.715 593.537C821.386 606.823 806.772 614.662 804.115 587.559M876.521 487.917C871.65 554.124 857.257 693.977 838.657 723.736" stroke="url(#paint35_linear_78_6575)" stroke-linecap="round"/>
<path d="M838.657 723.736C831.571 726.393 812.75 730.911 794.15 727.722" stroke="url(#paint36_linear_78_6575)" stroke-linecap="round"/>
<path d="M763.593 705.801C742.336 708.236 697.431 714.569 687.865 720.415C705.358 732.372 747.783 756.286 777.543 756.286C820.278 748.315 906.812 731.176 911.063 726.393C899.106 719.086 869.745 703.941 847.957 701.815" stroke="url(#paint37_linear_78_6575)" stroke-linecap="round"/>
<path d="M271.363 436.768C272.691 460.239 275.348 512.23 275.348 532.424C268.44 541.458 256.97 537.074 252.099 533.752C250.504 527.375 249.663 466.439 249.441 436.768" stroke="url(#paint38_linear_78_6575)" stroke-linecap="round"/>
<path d="M257.413 410.196L259.405 275.348C255.863 315.869 249.84 399.568 254.091 410.196" stroke="url(#paint39_linear_78_6575)" stroke-linecap="round"/>
<path d="M252.097 534.415C240.804 533.972 217.82 534.282 216.226 539.065C214.233 545.043 309.889 543.715 311.882 537.736C313.477 532.953 288.19 532.2 275.347 532.422" stroke="url(#paint40_linear_78_6575)" stroke-linecap="round"/>
<path d="M250.105 531.764C234.162 531.986 202.675 533.624 204.269 538.407V547.707C228.848 557.671 297.933 553.686 319.854 549.036V536.414C297.268 528.438 301.254 530.435 276.012 530.436" stroke="url(#paint41_linear_78_6575)" stroke-linecap="round"/>
<path d="M155.113 433.446L159.763 437.398M208.255 433.446L194.305 444.074L194.97 501.867L217.555 506.517C203.738 510.237 161.756 508.067 142.492 506.517L167.734 501.867L168.398 444.739L159.763 437.398M159.763 437.398L153.12 440.753V492.567M116.585 431.453L133.192 440.753V492.567M127.877 438.76L123.227 440.753V490.574H103.963V440.753L101.116 438.76L99.171 437.398M90.6778 431.453L99.171 437.398M99.171 437.398V482.603H81.3778V440.753L78.7207 438.76M70.7494 432.782L78.7207 438.76M78.7207 438.76V474.631H63.4423V433.446C46.8353 435.439 10.5656 435.97 1 435.439" stroke="url(#paint42_linear_78_6575)" stroke-linecap="round"/>
<path d="M49.4928 435.439V462.674M62.1142 467.989H49.4928V462.674M35.543 435.439V462.674H49.4928" stroke="url(#paint43_linear_78_6575)" stroke-linecap="round"/>
<path d="M24.2491 436.768V455.367M34.8776 458.689H24.2491V455.367M14.9492 436.768V455.367H24.2491" stroke="url(#paint44_linear_78_6575)" stroke-linecap="round"/>
<path d="M877.849 392.925L964.206 446.067M850.614 372.996L806.771 347.754M877.185 349.082L1040.6 446.067M850.614 337.79L806.771 312.547M875.192 306.568L1132.27 444.074M870.542 262.726L1136.25 396.911M860.578 222.869L1138.25 347.09M1136.25 289.961L853.271 173.713M845.964 134.52L1136.25 242.133" stroke="url(#paint45_linear_78_6575)" stroke-linecap="round"/>
<path d="M806.107 274.019L847.293 291.29M806.107 235.491L843.971 254.755" stroke="url(#paint46_linear_78_6575)" stroke-linecap="round"/>
<path d="M806.771 196.298L839.321 212.241" stroke="url(#paint47_linear_78_6575)" stroke-linecap="round"/>
<path d="M763.592 694.508C730.378 696.501 662.622 707.793 662.622 713.108M662.622 713.108C665.279 732.372 729.183 764.921 780.199 762.264C857.92 752.3 920.628 736.092 929.662 724.4M662.622 713.108C659.522 715.1 653.853 723.205 655.979 739.679C673.472 756.064 722.805 788.968 780.199 789.5C823.776 786.843 904.198 766.693 938.962 756.95C940.557 734.099 933.427 725.729 929.662 724.4M929.662 724.4C918.37 711.779 866.423 694.508 849.949 694.508" stroke="url(#paint48_linear_78_6575)" stroke-linecap="round"/>
<defs>
<linearGradient id="paint0_linear_78_6575" x1="772.859" y1="0.999997" x2="850.832" y2="6.0438" gradientUnits="userSpaceOnUse">
<stop stop-color="#F80005"/>
<stop offset="1" stop-color="#A800E3"/>
</linearGradient>
<linearGradient id="paint1_linear_78_6575" x1="795.274" y1="24.25" x2="934.337" y2="41.574" gradientUnits="userSpaceOnUse">
<stop stop-color="#F80005"/>
<stop offset="1" stop-color="#A800E3"/>
</linearGradient>
<linearGradient id="paint2_linear_78_6575" x1="807.895" y1="28.2353" x2="946.959" y2="45.5593" gradientUnits="userSpaceOnUse">
<stop stop-color="#F80005"/>
<stop offset="1" stop-color="#A800E3"/>
</linearGradient>
<linearGradient id="paint3_linear_78_6575" x1="799.216" y1="24.25" x2="804.422" y2="34.7957" gradientUnits="userSpaceOnUse">
<stop stop-color="#F80005"/>
<stop offset="1" stop-color="#A800E3"/>
</linearGradient>
<linearGradient id="paint4_linear_78_6575" x1="796.468" y1="24.25" x2="902.025" y2="34.1491" gradientUnits="userSpaceOnUse">
<stop stop-color="#F80005"/>
<stop offset="1" stop-color="#A800E3"/>
</linearGradient>
<linearGradient id="paint5_linear_78_6575" x1="803.537" y1="79.3849" x2="802.677" y2="82.0713" gradientUnits="userSpaceOnUse">
<stop stop-color="#F80005"/>
<stop offset="1" stop-color="#A800E3"/>
</linearGradient>
<linearGradient id="paint6_linear_78_6575" x1="824.907" y1="122.555" x2="823.919" y2="125.197" gradientUnits="userSpaceOnUse">
<stop stop-color="#F80005"/>
<stop offset="1" stop-color="#A800E3"/>
</linearGradient>
<linearGradient id="paint7_linear_78_6575" x1="830.606" y1="167.245" x2="829.549" y2="169.86" gradientUnits="userSpaceOnUse">
<stop stop-color="#F80005"/>
<stop offset="1" stop-color="#A800E3"/>
</linearGradient>
<linearGradient id="paint8_linear_78_6575" x1="842.004" y1="210.51" x2="840.85" y2="213.084" gradientUnits="userSpaceOnUse">
<stop stop-color="#F80005"/>
<stop offset="1" stop-color="#A800E3"/>
</linearGradient>
<linearGradient id="paint9_linear_78_6575" x1="847.703" y1="255.297" x2="846.489" y2="257.843" gradientUnits="userSpaceOnUse">
<stop stop-color="#F80005"/>
<stop offset="1" stop-color="#A800E3"/>
</linearGradient>
<linearGradient id="paint10_linear_78_6575" x1="847.992" y1="298.466" x2="846.692" y2="300.97" gradientUnits="userSpaceOnUse">
<stop stop-color="#F80005"/>
<stop offset="1" stop-color="#A800E3"/>
</linearGradient>
<linearGradient id="paint11_linear_78_6575" x1="862.038" y1="344.057" x2="860.615" y2="346.492" gradientUnits="userSpaceOnUse">
<stop stop-color="#F80005"/>
<stop offset="1" stop-color="#A800E3"/>
</linearGradient>
<linearGradient id="paint12_linear_78_6575" x1="867.614" y1="391.072" x2="866.168" y2="393.494" gradientUnits="userSpaceOnUse">
<stop stop-color="#F80005"/>
<stop offset="1" stop-color="#A800E3"/>
</linearGradient>
<linearGradient id="paint13_linear_78_6575" x1="800.12" y1="78.5284" x2="799.728" y2="81.2949" gradientUnits="userSpaceOnUse">
<stop stop-color="#F80005"/>
<stop offset="1" stop-color="#A800E3"/>
</linearGradient>
<linearGradient id="paint14_linear_78_6575" x1="804.858" y1="116.768" x2="804.04" y2="119.46" gradientUnits="userSpaceOnUse">
<stop stop-color="#F80005"/>
<stop offset="1" stop-color="#A800E3"/>
</linearGradient>
<linearGradient id="paint15_linear_78_6575" x1="805.705" y1="155.008" x2="804.694" y2="157.638" gradientUnits="userSpaceOnUse">
<stop stop-color="#F80005"/>
<stop offset="1" stop-color="#A800E3"/>
</linearGradient>
<linearGradient id="paint16_linear_78_6575" x1="803.704" y1="191.727" x2="802.494" y2="194.273" gradientUnits="userSpaceOnUse">
<stop stop-color="#F80005"/>
<stop offset="1" stop-color="#A800E3"/>
</linearGradient>
<linearGradient id="paint17_linear_78_6575" x1="804.744" y1="229.967" x2="803.422" y2="232.457" gradientUnits="userSpaceOnUse">
<stop stop-color="#F80005"/>
<stop offset="1" stop-color="#A800E3"/>
</linearGradient>
<linearGradient id="paint18_linear_78_6575" x1="804.551" y1="269.631" x2="803.171" y2="272.09" gradientUnits="userSpaceOnUse">
<stop stop-color="#F80005"/>
<stop offset="1" stop-color="#A800E3"/>
</linearGradient>
<linearGradient id="paint19_linear_78_6575" x1="804.359" y1="308.063" x2="802.986" y2="310.526" gradientUnits="userSpaceOnUse">
<stop stop-color="#F80005"/>
<stop offset="1" stop-color="#A800E3"/>
</linearGradient>
<linearGradient id="paint20_linear_78_6575" x1="802.935" y1="346.303" x2="801.431" y2="348.689" gradientUnits="userSpaceOnUse">
<stop stop-color="#F80005"/>
<stop offset="1" stop-color="#A800E3"/>
</linearGradient>
<linearGradient id="paint21_linear_78_6575" x1="-59.025" y1="424.53" x2="-49.141" y2="576.446" gradientUnits="userSpaceOnUse">
<stop stop-color="#F80005"/>
<stop offset="1" stop-color="#A800E3"/>
</linearGradient>
<linearGradient id="paint22_linear_78_6575" x1="815.406" y1="68.9144" x2="812.586" y2="68.9256" gradientUnits="userSpaceOnUse">
<stop stop-color="#F80005"/>
<stop offset="1" stop-color="#A800E3"/>
</linearGradient>
<linearGradient id="paint23_linear_78_6575" x1="23.6561" y1="418.765" x2="26.5054" y2="497.548" gradientUnits="userSpaceOnUse">
<stop stop-color="#F80005"/>
<stop offset="1" stop-color="#A800E3"/>
</linearGradient>
<linearGradient id="paint24_linear_78_6575" x1="23.6561" y1="418.765" x2="26.5054" y2="497.548" gradientUnits="userSpaceOnUse">
<stop stop-color="#F80005"/>
<stop offset="1" stop-color="#A800E3"/>
</linearGradient>
<linearGradient id="paint25_linear_78_6575" x1="25.506" y1="418.012" x2="35.7998" y2="567.645" gradientUnits="userSpaceOnUse">
<stop stop-color="#F80005"/>
<stop offset="1" stop-color="#A800E3"/>
</linearGradient>
<linearGradient id="paint26_linear_78_6575" x1="27.0264" y1="420.576" x2="31.7783" y2="522.24" gradientUnits="userSpaceOnUse">
<stop stop-color="#F80005"/>
<stop offset="1" stop-color="#A800E3"/>
</linearGradient>
<linearGradient id="paint27_linear_78_6575" x1="-14.7148" y1="430.436" x2="6.95925" y2="650.394" gradientUnits="userSpaceOnUse">
<stop stop-color="#F80005"/>
<stop offset="1" stop-color="#A800E3"/>
</linearGradient>
<linearGradient id="paint28_linear_78_6575" x1="258.541" y1="436.768" x2="264.327" y2="436.952" gradientUnits="userSpaceOnUse">
<stop stop-color="#F80005"/>
<stop offset="1" stop-color="#A800E3"/>
</linearGradient>
<linearGradient id="paint29_linear_78_6575" x1="679.431" y1="359.711" x2="774.052" y2="453.386" gradientUnits="userSpaceOnUse">
<stop stop-color="#F80005"/>
<stop offset="1" stop-color="#A800E3"/>
</linearGradient>
<linearGradient id="paint30_linear_78_6575" x1="431.532" y1="92.6704" x2="876.261" y2="411.943" gradientUnits="userSpaceOnUse">
<stop stop-color="#F80005"/>
<stop offset="1" stop-color="#A800E3"/>
</linearGradient>
<linearGradient id="paint31_linear_78_6575" x1="259.052" y1="270.033" x2="444.028" y2="388.981" gradientUnits="userSpaceOnUse">
<stop stop-color="#F80005"/>
<stop offset="1" stop-color="#A800E3"/>
</linearGradient>
<linearGradient id="paint32_linear_78_6575" x1="173.394" y1="281.326" x2="362.457" y2="478.977" gradientUnits="userSpaceOnUse">
<stop stop-color="#F80005"/>
<stop offset="1" stop-color="#A800E3"/>
</linearGradient>
<linearGradient id="paint33_linear_78_6575" x1="247.06" y1="231.505" x2="299.403" y2="236.98" gradientUnits="userSpaceOnUse">
<stop stop-color="#F80005"/>
<stop offset="1" stop-color="#A800E3"/>
</linearGradient>
<linearGradient id="paint34_linear_78_6575" x1="101.543" y1="411.426" x2="104.201" y2="484.691" gradientUnits="userSpaceOnUse">
<stop stop-color="#F80005"/>
<stop offset="1" stop-color="#A800E3"/>
</linearGradient>
<linearGradient id="paint35_linear_78_6575" x1="755.422" y1="475.96" x2="969.216" y2="547.442" gradientUnits="userSpaceOnUse">
<stop stop-color="#F80005"/>
<stop offset="1" stop-color="#A800E3"/>
</linearGradient>
<linearGradient id="paint36_linear_78_6575" x1="790.93" y1="723.736" x2="793.073" y2="737.744" gradientUnits="userSpaceOnUse">
<stop stop-color="#F80005"/>
<stop offset="1" stop-color="#A800E3"/>
</linearGradient>
<linearGradient id="paint37_linear_78_6575" x1="671.713" y1="701.815" x2="717.109" y2="840.617" gradientUnits="userSpaceOnUse">
<stop stop-color="#F80005"/>
<stop offset="1" stop-color="#A800E3"/>
</linearGradient>
<linearGradient id="paint38_linear_78_6575" x1="247.567" y1="436.768" x2="300.17" y2="446.834" gradientUnits="userSpaceOnUse">
<stop stop-color="#F80005"/>
<stop offset="1" stop-color="#A800E3"/>
</linearGradient>
<linearGradient id="paint39_linear_78_6575" x1="252.139" y1="275.348" x2="266.382" y2="275.882" gradientUnits="userSpaceOnUse">
<stop stop-color="#F80005"/>
<stop offset="1" stop-color="#A800E3"/>
</linearGradient>
<linearGradient id="paint40_linear_78_6575" x1="209.266" y1="532.388" x2="213.567" y2="561.516" gradientUnits="userSpaceOnUse">
<stop stop-color="#F80005"/>
<stop offset="1" stop-color="#A800E3"/>
</linearGradient>
<linearGradient id="paint41_linear_78_6575" x1="195.842" y1="530.213" x2="212.892" y2="592.337" gradientUnits="userSpaceOnUse">
<stop stop-color="#F80005"/>
<stop offset="1" stop-color="#A800E3"/>
</linearGradient>
<linearGradient id="paint42_linear_78_6575" x1="-14.6715" y1="431.453" x2="69.8828" y2="608.63" gradientUnits="userSpaceOnUse">
<stop stop-color="#F80005"/>
<stop offset="1" stop-color="#A800E3"/>
</linearGradient>
<linearGradient id="paint43_linear_78_6575" x1="33.6201" y1="435.439" x2="74.4122" y2="460.287" gradientUnits="userSpaceOnUse">
<stop stop-color="#F80005"/>
<stop offset="1" stop-color="#A800E3"/>
</linearGradient>
<linearGradient id="paint44_linear_78_6575" x1="13.5071" y1="436.768" x2="42.2338" y2="456.255" gradientUnits="userSpaceOnUse">
<stop stop-color="#F80005"/>
<stop offset="1" stop-color="#A800E3"/>
</linearGradient>
<linearGradient id="paint45_linear_78_6575" x1="782.784" y1="134.52" x2="1210.74" y2="474.287" gradientUnits="userSpaceOnUse">
<stop stop-color="#F80005"/>
<stop offset="1" stop-color="#A800E3"/>
</linearGradient>
<linearGradient id="paint46_linear_78_6575" x1="803.127" y1="235.491" x2="869.639" y2="272.124" gradientUnits="userSpaceOnUse">
<stop stop-color="#F80005"/>
<stop offset="1" stop-color="#A800E3"/>
</linearGradient>
<linearGradient id="paint47_linear_78_6575" x1="804.416" y1="196.298" x2="825.046" y2="227.728" gradientUnits="userSpaceOnUse">
<stop stop-color="#F80005"/>
<stop offset="1" stop-color="#A800E3"/>
</linearGradient>
<linearGradient id="paint48_linear_78_6575" x1="634.985" y1="694.508" x2="735.072" y2="917.542" gradientUnits="userSpaceOnUse">
<stop stop-color="#F80005"/>
<stop offset="1" stop-color="#A800E3"/>
</linearGradient>
</defs>
</svg>
