<svg width="40" height="40" viewBox="0 0 40 40" fill="none" xmlns="http://www.w3.org/2000/svg">
<path fill-rule="evenodd" clip-rule="evenodd" d="M19.7531 2.98946V37.0106C19.8352 37.0118 19.9176 37.0124 20 37.0124C29.3957 37.0124 37.0123 29.3957 37.0123 20C37.0123 10.6044 29.3957 2.9877 20 2.9877C19.9176 2.9877 19.8352 2.98829 19.7531 2.98946ZM32.5926 20.4939C32.5926 22.5394 30.9344 24.1976 28.8889 24.1976C26.8434 24.1976 25.1852 22.5394 25.1852 20.4939C25.1852 18.4484 26.8434 16.7902 28.8889 16.7902C30.9344 16.7902 32.5926 18.4484 32.5926 20.4939ZM40 20C40 31.0457 31.0457 40 20 40C8.9543 40 0 31.0457 0 20C0 8.9543 8.9543 0 20 0C31.0457 0 40 8.9543 40 20Z" fill="white"/>
</svg>
