<svg width="54" height="57" viewBox="0 0 54 57" fill="none" xmlns="http://www.w3.org/2000/svg">
<path d="M38.3072 49.2229V44.5994C38.3072 42.1469 37.3635 39.7949 35.6837 38.0607C34.0038 36.3266 31.7255 35.3523 29.3498 35.3523H11.435C9.05931 35.3523 6.78095 36.3266 5.10111 38.0607C3.42127 39.7949 2.47754 42.1469 2.47754 44.5994V49.2229M51.7434 49.2229V44.5994C51.7419 42.5505 51.0813 40.5602 49.8654 38.9409C48.6494 37.3216 46.947 36.1651 45.0253 35.6528M36.0679 7.91161C37.9947 8.4209 39.7024 9.57771 40.922 11.1997C42.1416 12.8216 42.8035 14.8165 42.8035 16.8697C42.8035 18.923 42.1416 20.9178 40.922 22.5398C39.7024 24.1617 37.9947 25.3185 36.0679 25.8278M29.3498 16.8582C29.3498 21.9652 25.3394 26.1052 20.3924 26.1052C15.4453 26.1052 11.435 21.9652 11.435 16.8582C11.435 11.7511 15.4453 7.61108 20.3924 7.61108C25.3394 7.61108 29.3498 11.7511 29.3498 16.8582Z" stroke="url(#paint0_linear_35_5925)" stroke-width="2" stroke-linecap="round" stroke-linejoin="round"/>
<defs>
<linearGradient id="paint0_linear_35_5925" x1="2.35962" y1="4.87346" x2="54.8826" y2="50.1177" gradientUnits="userSpaceOnUse">
<stop stop-color="#F80005"/>
<stop offset="1" stop-color="#A800E3"/>
</linearGradient>
</defs>
</svg>
