<svg width="1442" height="809" viewBox="0 0 1442 809" fill="none" xmlns="http://www.w3.org/2000/svg">
<path d="M1 744.938C561.637 938.14 1415.95 686.644 1441 1" stroke="url(#paint0_linear_1037_510)"/>
<path d="M1 744.938C542.56 938.14 1367.8 686.644 1392 1" stroke="url(#paint1_linear_1037_510)"/>
<path d="M1 744.938C537.888 938.14 1356.01 686.644 1380 1" stroke="url(#paint2_linear_1037_510)"/>
<path d="M1 744.938C531.269 938.14 1339.31 686.644 1363 1" stroke="url(#paint3_linear_1037_510)"/>
<path d="M1 744.938C524.261 938.14 1321.62 686.644 1345 1" stroke="url(#paint4_linear_1037_510)"/>
<path d="M1 744.938C498.176 938.14 1255.79 686.644 1278 1" stroke="url(#paint5_linear_1037_510)"/>
<path d="M1 744.938C395.003 938.14 995.397 686.644 1013 1" stroke="url(#paint6_linear_1037_510)"/>
<path d="M1 744.938C376.705 938.14 949.214 686.644 966 1" stroke="url(#paint7_linear_1037_510)"/>
<path d="M1 744.938C365.414 938.14 920.719 686.644 937 1" stroke="url(#paint8_linear_1037_510)"/>
<path d="M1 744.938C435.883 938.14 1098.57 686.644 1118 1" stroke="url(#paint9_linear_1037_510)"/>
<path d="M1 744.938C487.275 938.14 1228.27 686.644 1250 1" stroke="url(#paint10_linear_1037_510)"/>
<path d="M1 744.938C517.253 938.14 1303.93 686.644 1327 1" stroke="url(#paint11_linear_1037_510)"/>
<path d="M1 744.938C510.245 938.14 1286.25 686.644 1309 1" stroke="url(#paint12_linear_1037_510)"/>
<path d="M1 744.938C550.346 938.14 1387.46 686.644 1412 1" stroke="url(#paint13_linear_1037_510)"/>
<path d="M1 744.938C546.453 938.14 1377.63 686.644 1402 1" stroke="url(#paint14_linear_1037_510)"/>
<path d="M1 744.938C555.797 938.14 1401.21 686.644 1426 1" stroke="url(#paint15_linear_1037_510)"/>
<path d="M1 744.938C553.461 938.14 1395.32 686.644 1420 1" stroke="url(#paint16_linear_1037_510)"/>
<path d="M1 744.938C559.301 938.14 1410.06 686.644 1435 1" stroke="url(#paint17_linear_1037_510)"/>
<path d="M1441 744.938C880.363 938.14 26.0483 686.644 1 1" stroke="url(#paint18_linear_1037_510)" stroke-opacity="0.2"/>
<path d="M1441 744.938C899.44 938.14 74.196 686.644 50 1" stroke="url(#paint19_linear_1037_510)" stroke-opacity="0.2"/>
<path d="M1441 744.938C904.112 938.14 85.9872 686.644 62 1" stroke="url(#paint20_linear_1037_510)" stroke-opacity="0.2"/>
<path d="M1441 744.938C910.731 938.14 102.692 686.644 79 1" stroke="url(#paint21_linear_1037_510)" stroke-opacity="0.2"/>
<path d="M1441 744.938C917.739 938.14 120.378 686.644 96.9999 1" stroke="url(#paint22_linear_1037_510)" stroke-opacity="0.2"/>
<path d="M1441 744.938C943.824 938.14 186.213 686.644 164 1" stroke="url(#paint23_linear_1037_510)" stroke-opacity="0.2"/>
<path d="M1441 744.938C975.749 938.14 266.787 686.644 246 1" stroke="url(#paint24_linear_1037_510)" stroke-opacity="0.2"/>
<path d="M1441 744.938C924.747 938.14 138.065 686.644 115 1" stroke="url(#paint25_linear_1037_510)" stroke-opacity="0.2"/>
<path d="M1441 745.173C931.755 937.656 155.752 687.096 133 4" stroke="url(#paint26_linear_1037_510)" stroke-opacity="0.2"/>
<path d="M1441 744.938C891.654 938.14 54.5439 686.644 30 1" stroke="url(#paint27_linear_1037_510)" stroke-opacity="0.2"/>
<path d="M1441 744.938C895.547 938.14 64.3699 686.644 40 1" stroke="url(#paint28_linear_1037_510)" stroke-opacity="0.2"/>
<path d="M1441 744.938C886.203 938.14 40.7874 686.644 16 1" stroke="url(#paint29_linear_1037_510)" stroke-opacity="0.2"/>
<path d="M1441 744.938C888.539 938.14 46.683 686.644 22 1" stroke="url(#paint30_linear_1037_510)" stroke-opacity="0.2"/>
<path d="M1441 744.938C882.699 938.14 31.9439 686.644 6.99997 1" stroke="url(#paint31_linear_1037_510)" stroke-opacity="0.2"/>
<path d="M1 744.938C561.637 938.14 1415.95 686.644 1441 1" stroke="url(#paint32_linear_1037_510)"/>
<path d="M1 744.938C542.56 938.14 1367.8 686.644 1392 1" stroke="url(#paint33_linear_1037_510)"/>
<path d="M1 744.938C537.888 938.14 1356.01 686.644 1380 1" stroke="url(#paint34_linear_1037_510)"/>
<path d="M1 744.938C531.269 938.14 1339.31 686.644 1363 1" stroke="url(#paint35_linear_1037_510)"/>
<path d="M1 744.938C524.261 938.14 1321.62 686.644 1345 1" stroke="url(#paint36_linear_1037_510)"/>
<path d="M1 744.938C498.176 938.14 1255.79 686.644 1278 1" stroke="url(#paint37_linear_1037_510)"/>
<path d="M1 744.938C465.472 938.14 1173.25 686.644 1194 1" stroke="url(#paint38_linear_1037_510)"/>
<path d="M1 744.938C517.253 938.14 1303.93 686.644 1327 1" stroke="url(#paint39_linear_1037_510)"/>
<path d="M1 745.173C510.245 937.656 1286.25 687.096 1309 4" stroke="url(#paint40_linear_1037_510)"/>
<path d="M1 744.938C550.346 938.14 1387.46 686.644 1412 1" stroke="url(#paint41_linear_1037_510)"/>
<path d="M1 744.938C546.453 938.14 1377.63 686.644 1402 1" stroke="url(#paint42_linear_1037_510)"/>
<path d="M1 744.938C555.797 938.14 1401.21 686.644 1426 1" stroke="url(#paint43_linear_1037_510)"/>
<path d="M1 744.938C553.461 938.14 1395.32 686.644 1420 1" stroke="url(#paint44_linear_1037_510)"/>
<path d="M1 744.938C559.301 938.14 1410.06 686.644 1435 1" stroke="url(#paint45_linear_1037_510)"/>
<rect x="1433" y="750" width="1" height="2" fill="#D9D9D9"/>
<defs>
<linearGradient id="paint0_linear_1037_510" x1="721" y1="1" x2="721" y2="808" gradientUnits="userSpaceOnUse">
<stop stop-color="#F80005"/>
<stop offset="1" stop-color="#A800E3"/>
</linearGradient>
<linearGradient id="paint1_linear_1037_510" x1="696.5" y1="1" x2="696.5" y2="808" gradientUnits="userSpaceOnUse">
<stop stop-color="#F80005"/>
<stop offset="1" stop-color="#A800E3"/>
</linearGradient>
<linearGradient id="paint2_linear_1037_510" x1="690.5" y1="1" x2="690.5" y2="808" gradientUnits="userSpaceOnUse">
<stop stop-color="#F80005"/>
<stop offset="1" stop-color="#A800E3"/>
</linearGradient>
<linearGradient id="paint3_linear_1037_510" x1="682" y1="1" x2="682" y2="808" gradientUnits="userSpaceOnUse">
<stop stop-color="#F80005"/>
<stop offset="1" stop-color="#A800E3"/>
</linearGradient>
<linearGradient id="paint4_linear_1037_510" x1="673" y1="1" x2="673" y2="808" gradientUnits="userSpaceOnUse">
<stop stop-color="#F80005"/>
<stop offset="1" stop-color="#A800E3"/>
</linearGradient>
<linearGradient id="paint5_linear_1037_510" x1="639.5" y1="1" x2="639.5" y2="808" gradientUnits="userSpaceOnUse">
<stop stop-color="#F80005"/>
<stop offset="1" stop-color="#A800E3"/>
</linearGradient>
<linearGradient id="paint6_linear_1037_510" x1="507" y1="1" x2="507" y2="808" gradientUnits="userSpaceOnUse">
<stop stop-color="#F80005"/>
<stop offset="1" stop-color="#A800E3"/>
</linearGradient>
<linearGradient id="paint7_linear_1037_510" x1="483.5" y1="1" x2="483.5" y2="808" gradientUnits="userSpaceOnUse">
<stop stop-color="#F80005"/>
<stop offset="1" stop-color="#A800E3"/>
</linearGradient>
<linearGradient id="paint8_linear_1037_510" x1="469" y1="1" x2="469" y2="808" gradientUnits="userSpaceOnUse">
<stop stop-color="#F80005"/>
<stop offset="1" stop-color="#A800E3"/>
</linearGradient>
<linearGradient id="paint9_linear_1037_510" x1="559.5" y1="1" x2="559.5" y2="808" gradientUnits="userSpaceOnUse">
<stop stop-color="#F80005"/>
<stop offset="1" stop-color="#A800E3"/>
</linearGradient>
<linearGradient id="paint10_linear_1037_510" x1="625.5" y1="1" x2="625.5" y2="808" gradientUnits="userSpaceOnUse">
<stop stop-color="#F80005"/>
<stop offset="1" stop-color="#A800E3"/>
</linearGradient>
<linearGradient id="paint11_linear_1037_510" x1="664" y1="1" x2="664" y2="808" gradientUnits="userSpaceOnUse">
<stop stop-color="#F80005"/>
<stop offset="1" stop-color="#A800E3"/>
</linearGradient>
<linearGradient id="paint12_linear_1037_510" x1="655" y1="1" x2="655" y2="808" gradientUnits="userSpaceOnUse">
<stop stop-color="#F80005"/>
<stop offset="1" stop-color="#A800E3"/>
</linearGradient>
<linearGradient id="paint13_linear_1037_510" x1="706.5" y1="1" x2="706.5" y2="808" gradientUnits="userSpaceOnUse">
<stop stop-color="#F80005"/>
<stop offset="1" stop-color="#A800E3"/>
</linearGradient>
<linearGradient id="paint14_linear_1037_510" x1="701.5" y1="1" x2="701.5" y2="808" gradientUnits="userSpaceOnUse">
<stop stop-color="#F80005"/>
<stop offset="1" stop-color="#A800E3"/>
</linearGradient>
<linearGradient id="paint15_linear_1037_510" x1="713.5" y1="1" x2="713.5" y2="808" gradientUnits="userSpaceOnUse">
<stop stop-color="#F80005"/>
<stop offset="1" stop-color="#A800E3"/>
</linearGradient>
<linearGradient id="paint16_linear_1037_510" x1="710.5" y1="1" x2="710.5" y2="808" gradientUnits="userSpaceOnUse">
<stop stop-color="#F80005"/>
<stop offset="1" stop-color="#A800E3"/>
</linearGradient>
<linearGradient id="paint17_linear_1037_510" x1="718" y1="1" x2="718" y2="808" gradientUnits="userSpaceOnUse">
<stop stop-color="#F80005"/>
<stop offset="1" stop-color="#A800E3"/>
</linearGradient>
<linearGradient id="paint18_linear_1037_510" x1="721" y1="1" x2="721" y2="808" gradientUnits="userSpaceOnUse">
<stop stop-color="#F80005"/>
<stop offset="1" stop-color="#A800E3"/>
</linearGradient>
<linearGradient id="paint19_linear_1037_510" x1="745.5" y1="1" x2="745.5" y2="808" gradientUnits="userSpaceOnUse">
<stop stop-color="#F80005"/>
<stop offset="1" stop-color="#A800E3"/>
</linearGradient>
<linearGradient id="paint20_linear_1037_510" x1="751.5" y1="1" x2="751.5" y2="808" gradientUnits="userSpaceOnUse">
<stop stop-color="#F80005"/>
<stop offset="1" stop-color="#A800E3"/>
</linearGradient>
<linearGradient id="paint21_linear_1037_510" x1="760" y1="1" x2="760" y2="808" gradientUnits="userSpaceOnUse">
<stop stop-color="#F80005"/>
<stop offset="1" stop-color="#A800E3"/>
</linearGradient>
<linearGradient id="paint22_linear_1037_510" x1="769" y1="1" x2="769" y2="808" gradientUnits="userSpaceOnUse">
<stop stop-color="#F80005"/>
<stop offset="1" stop-color="#A800E3"/>
</linearGradient>
<linearGradient id="paint23_linear_1037_510" x1="802.5" y1="1" x2="802.5" y2="808" gradientUnits="userSpaceOnUse">
<stop stop-color="#F80005"/>
<stop offset="1" stop-color="#A800E3"/>
</linearGradient>
<linearGradient id="paint24_linear_1037_510" x1="843.5" y1="1" x2="843.5" y2="808" gradientUnits="userSpaceOnUse">
<stop stop-color="#F80005"/>
<stop offset="1" stop-color="#A800E3"/>
</linearGradient>
<linearGradient id="paint25_linear_1037_510" x1="778" y1="1" x2="778" y2="808" gradientUnits="userSpaceOnUse">
<stop stop-color="#F80005"/>
<stop offset="1" stop-color="#A800E3"/>
</linearGradient>
<linearGradient id="paint26_linear_1037_510" x1="787" y1="4" x2="787" y2="808" gradientUnits="userSpaceOnUse">
<stop stop-color="#F80005"/>
<stop offset="1" stop-color="#A800E3"/>
</linearGradient>
<linearGradient id="paint27_linear_1037_510" x1="735.5" y1="1" x2="735.5" y2="808" gradientUnits="userSpaceOnUse">
<stop stop-color="#F80005"/>
<stop offset="1" stop-color="#A800E3"/>
</linearGradient>
<linearGradient id="paint28_linear_1037_510" x1="740.5" y1="1" x2="740.5" y2="808" gradientUnits="userSpaceOnUse">
<stop stop-color="#F80005"/>
<stop offset="1" stop-color="#A800E3"/>
</linearGradient>
<linearGradient id="paint29_linear_1037_510" x1="728.5" y1="1" x2="728.5" y2="808" gradientUnits="userSpaceOnUse">
<stop stop-color="#F80005"/>
<stop offset="1" stop-color="#A800E3"/>
</linearGradient>
<linearGradient id="paint30_linear_1037_510" x1="731.5" y1="1" x2="731.5" y2="808" gradientUnits="userSpaceOnUse">
<stop stop-color="#F80005"/>
<stop offset="1" stop-color="#A800E3"/>
</linearGradient>
<linearGradient id="paint31_linear_1037_510" x1="724" y1="1" x2="724" y2="808" gradientUnits="userSpaceOnUse">
<stop stop-color="#F80005"/>
<stop offset="1" stop-color="#A800E3"/>
</linearGradient>
<linearGradient id="paint32_linear_1037_510" x1="721" y1="1" x2="721" y2="808" gradientUnits="userSpaceOnUse">
<stop stop-color="#F80005"/>
<stop offset="1" stop-color="#A800E3"/>
</linearGradient>
<linearGradient id="paint33_linear_1037_510" x1="696.5" y1="1" x2="696.5" y2="808" gradientUnits="userSpaceOnUse">
<stop stop-color="#F80005"/>
<stop offset="1" stop-color="#A800E3"/>
</linearGradient>
<linearGradient id="paint34_linear_1037_510" x1="690.5" y1="1" x2="690.5" y2="808" gradientUnits="userSpaceOnUse">
<stop stop-color="#F80005"/>
<stop offset="1" stop-color="#A800E3"/>
</linearGradient>
<linearGradient id="paint35_linear_1037_510" x1="682" y1="1" x2="682" y2="808" gradientUnits="userSpaceOnUse">
<stop stop-color="#F80005"/>
<stop offset="1" stop-color="#A800E3"/>
</linearGradient>
<linearGradient id="paint36_linear_1037_510" x1="673" y1="1" x2="673" y2="808" gradientUnits="userSpaceOnUse">
<stop stop-color="#F80005"/>
<stop offset="1" stop-color="#A800E3"/>
</linearGradient>
<linearGradient id="paint37_linear_1037_510" x1="639.5" y1="1" x2="639.5" y2="808" gradientUnits="userSpaceOnUse">
<stop stop-color="#F80005"/>
<stop offset="1" stop-color="#A800E3"/>
</linearGradient>
<linearGradient id="paint38_linear_1037_510" x1="597.5" y1="1" x2="597.5" y2="808" gradientUnits="userSpaceOnUse">
<stop stop-color="#F80005"/>
<stop offset="1" stop-color="#A800E3"/>
</linearGradient>
<linearGradient id="paint39_linear_1037_510" x1="664" y1="1" x2="664" y2="808" gradientUnits="userSpaceOnUse">
<stop stop-color="#F80005"/>
<stop offset="1" stop-color="#A800E3"/>
</linearGradient>
<linearGradient id="paint40_linear_1037_510" x1="655" y1="4" x2="655" y2="808" gradientUnits="userSpaceOnUse">
<stop stop-color="#F80005"/>
<stop offset="1" stop-color="#A800E3"/>
</linearGradient>
<linearGradient id="paint41_linear_1037_510" x1="706.5" y1="1" x2="706.5" y2="808" gradientUnits="userSpaceOnUse">
<stop stop-color="#F80005"/>
<stop offset="1" stop-color="#A800E3"/>
</linearGradient>
<linearGradient id="paint42_linear_1037_510" x1="701.5" y1="1" x2="701.5" y2="808" gradientUnits="userSpaceOnUse">
<stop stop-color="#F80005"/>
<stop offset="1" stop-color="#A800E3"/>
</linearGradient>
<linearGradient id="paint43_linear_1037_510" x1="713.5" y1="1" x2="713.5" y2="808" gradientUnits="userSpaceOnUse">
<stop stop-color="#F80005"/>
<stop offset="1" stop-color="#A800E3"/>
</linearGradient>
<linearGradient id="paint44_linear_1037_510" x1="710.5" y1="1" x2="710.5" y2="808" gradientUnits="userSpaceOnUse">
<stop stop-color="#F80005"/>
<stop offset="1" stop-color="#A800E3"/>
</linearGradient>
<linearGradient id="paint45_linear_1037_510" x1="718" y1="1" x2="718" y2="808" gradientUnits="userSpaceOnUse">
<stop stop-color="#F80005"/>
<stop offset="1" stop-color="#A800E3"/>
</linearGradient>
</defs>
</svg>
