<svg width="1440" height="1043" viewBox="0 0 1440 1043" fill="none" xmlns="http://www.w3.org/2000/svg">
<g clip-path="url(#clip0_78_6890)">
<path d="M1466 550.289C1412.48 598.572 266.5 335.516 -0.273438 64.2084" stroke="url(#paint0_linear_78_6890)"/>
<path d="M1466.82 591.996C1439.25 657.902 247.65 332.421 -0.273438 64.2084" stroke="url(#paint1_linear_78_6890)"/>
<path d="M1508.32 637.515C1480.76 703.421 239.336 357.626 -0.273438 64.2084" stroke="url(#paint2_linear_78_6890)"/>
<path d="M1513.17 686.265C1485.61 752.171 230.905 371.34 -0.273438 64.2084" stroke="url(#paint3_linear_78_6890)"/>
<path d="M1546.86 720.519C1519.3 786.425 313.925 447.921 -0.273438 64.2084" stroke="url(#paint4_linear_78_6890)"/>
<path d="M1569.87 771.443C1542.31 837.349 292.441 451.347 -0.273438 64.2084" stroke="url(#paint5_linear_78_6890)"/>
<path d="M1644.35 810.907C1662.96 873.002 488.437 613.569 -0.273438 64.2084" stroke="url(#paint6_linear_78_6890)"/>
<path d="M1655.19 856.887C1673.79 918.982 452.394 633.665 -0.273438 64.2084" stroke="url(#paint7_linear_78_6890)"/>
<path d="M1693.12 901.475C1699.83 927.705 643.144 821.647 -0.273438 64.2084" stroke="url(#paint8_linear_78_6890)"/>
<path d="M1730.55 995.07C1754.91 1002.43 619.05 859.554 -0.273438 64.2084" stroke="url(#paint9_linear_78_6890)"/>
<path d="M-232.875 794.379C-252.728 769.599 911.502 263.398 1439.96 149.515" stroke="url(#paint10_linear_78_6890)"/>
<path d="M-284.585 793.958C-345.104 780.423 929.142 255.048 1439.96 149.515" stroke="url(#paint11_linear_78_6890)"/>
<path d="M-370.861 811.615C-431.38 798.081 904.361 250.865 1439.96 149.515" stroke="url(#paint12_linear_78_6890)"/>
<path d="M-434.163 812.858C-494.683 799.324 893.748 246.847 1439.96 149.515" stroke="url(#paint13_linear_78_6890)"/>
<path d="M-500.889 827.24C-561.408 813.705 738.912 282.434 1439.96 149.515" stroke="url(#paint14_linear_78_6890)"/>
<path d="M-580.2 836.545C-640.719 823.01 750.496 272.788 1439.96 149.515" stroke="url(#paint15_linear_78_6890)"/>
<path d="M-683.279 869.024C-773.041 876.153 407.714 357.155 1439.96 149.515" stroke="url(#paint16_linear_78_6890)"/>
<path d="M-747.588 872.993C-837.351 880.121 409.564 340.7 1439.96 149.515" stroke="url(#paint17_linear_78_6890)"/>
<path d="M-830.097 889.073C-867.169 891.571 39.068 422.242 1439.96 149.515" stroke="url(#paint18_linear_78_6890)"/>
<path d="M-972.287 904.002C-999.196 914.729 10.3139 410.781 1439.96 149.515" stroke="url(#paint19_linear_78_6890)"/>
</g>
<defs>
<linearGradient id="paint0_linear_78_6890" x1="748.671" y1="290.347" x2="716.037" y2="398.428" gradientUnits="userSpaceOnUse">
<stop stop-color="#F80005"/>
<stop offset="1" stop-color="#A800E3"/>
</linearGradient>
<linearGradient id="paint1_linear_78_6890" x1="764.421" y1="295.103" x2="724.668" y2="426.762" gradientUnits="userSpaceOnUse">
<stop stop-color="#F80005"/>
<stop offset="1" stop-color="#A800E3"/>
</linearGradient>
<linearGradient id="paint2_linear_78_6890" x1="797.195" y1="304.998" x2="749.536" y2="462.838" gradientUnits="userSpaceOnUse">
<stop stop-color="#F80005"/>
<stop offset="1" stop-color="#A800E3"/>
</linearGradient>
<linearGradient id="paint3_linear_78_6890" x1="816.855" y1="310.935" x2="759.242" y2="501.742" gradientUnits="userSpaceOnUse">
<stop stop-color="#F80005"/>
<stop offset="1" stop-color="#A800E3"/>
</linearGradient>
<linearGradient id="paint4_linear_78_6890" x1="842.493" y1="318.676" x2="776.61" y2="536.875" gradientUnits="userSpaceOnUse">
<stop stop-color="#F80005"/>
<stop offset="1" stop-color="#A800E3"/>
</linearGradient>
<linearGradient id="paint5_linear_78_6890" x1="870.023" y1="326.989" x2="794.713" y2="576.407" gradientUnits="userSpaceOnUse">
<stop stop-color="#F80005"/>
<stop offset="1" stop-color="#A800E3"/>
</linearGradient>
<linearGradient id="paint6_linear_78_6890" x1="914.411" y1="340.391" x2="830.787" y2="617.345" gradientUnits="userSpaceOnUse">
<stop stop-color="#F80005"/>
<stop offset="1" stop-color="#A800E3"/>
</linearGradient>
<linearGradient id="paint7_linear_78_6890" x1="935.351" y1="346.714" x2="841.516" y2="657.483" gradientUnits="userSpaceOnUse">
<stop stop-color="#F80005"/>
<stop offset="1" stop-color="#A800E3"/>
</linearGradient>
<linearGradient id="paint8_linear_78_6890" x1="965.532" y1="355.827" x2="858.886" y2="709.025" gradientUnits="userSpaceOnUse">
<stop stop-color="#F80005"/>
<stop offset="1" stop-color="#A800E3"/>
</linearGradient>
<linearGradient id="paint9_linear_78_6890" x1="1014.23" y1="370.531" x2="892.544" y2="773.546" gradientUnits="userSpaceOnUse">
<stop stop-color="#F80005"/>
<stop offset="1" stop-color="#A800E3"/>
</linearGradient>
<linearGradient id="paint10_linear_78_6890" x1="-239.432" y1="789.069" x2="738.527" y2="-418.532" gradientUnits="userSpaceOnUse">
<stop stop-color="#F80005"/>
<stop offset="1" stop-color="#A800E3"/>
</linearGradient>
<linearGradient id="paint11_linear_78_6890" x1="-279.63" y1="798.567" x2="718.896" y2="-434.429" gradientUnits="userSpaceOnUse">
<stop stop-color="#F80005"/>
<stop offset="1" stop-color="#A800E3"/>
</linearGradient>
<linearGradient id="paint12_linear_78_6890" x1="-358.032" y1="822.575" x2="683.288" y2="-463.266" gradientUnits="userSpaceOnUse">
<stop stop-color="#F80005"/>
<stop offset="1" stop-color="#A800E3"/>
</linearGradient>
<linearGradient id="paint13_linear_78_6890" x1="-409.02" y1="833.775" x2="657.973" y2="-483.767" gradientUnits="userSpaceOnUse">
<stop stop-color="#F80005"/>
<stop offset="1" stop-color="#A800E3"/>
</linearGradient>
<linearGradient id="paint14_linear_78_6890" x1="-471.935" y1="851.273" x2="628.535" y2="-507.607" gradientUnits="userSpaceOnUse">
<stop stop-color="#F80005"/>
<stop offset="1" stop-color="#A800E3"/>
</linearGradient>
<linearGradient id="paint15_linear_78_6890" x1="-539.909" y1="869.728" x2="596.51" y2="-533.542" gradientUnits="userSpaceOnUse">
<stop stop-color="#F80005"/>
<stop offset="1" stop-color="#A800E3"/>
</linearGradient>
<linearGradient id="paint16_linear_78_6890" x1="-644.281" y1="903.713" x2="550.098" y2="-571.128" gradientUnits="userSpaceOnUse">
<stop stop-color="#F80005"/>
<stop offset="1" stop-color="#A800E3"/>
</linearGradient>
<linearGradient id="paint17_linear_78_6890" x1="-698.289" y1="915.883" x2="523.433" y2="-592.722" gradientUnits="userSpaceOnUse">
<stop stop-color="#F80005"/>
<stop offset="1" stop-color="#A800E3"/>
</linearGradient>
<linearGradient id="paint18_linear_78_6890" x1="-774.685" y1="934.592" x2="486.446" y2="-622.675" gradientUnits="userSpaceOnUse">
<stop stop-color="#F80005"/>
<stop offset="1" stop-color="#A800E3"/>
</linearGradient>
<linearGradient id="paint19_linear_78_6890" x1="-893.688" y1="968.242" x2="431.035" y2="-667.549" gradientUnits="userSpaceOnUse">
<stop stop-color="#F80005"/>
<stop offset="1" stop-color="#A800E3"/>
</linearGradient>
<clipPath id="clip0_78_6890">
<rect width="3014.74" height="1043" fill="white" transform="translate(-986)"/>
</clipPath>
</defs>
</svg>
