<svg width="706" height="744" viewBox="0 0 706 744" fill="none" xmlns="http://www.w3.org/2000/svg">
<path d="M315.5 722.309C321 700.809 329.5 270.809 330 196.809C330.4 137.609 392.167 50.1425 423 13.8095C435 -4.99054 444.667 0.975754 448 6.3089C449.6 -1.2911 487.333 19.8089 506 31.3089C511.333 33.3088 523.3 38.4086 528.5 42.8086C552 44.3086 561.8 47.3086 579 87.3086C605.333 149.309 661.8 333.809 677 575.809C655.833 580.475 609.6 588.509 594 583.309C584.833 581.975 564.9 582.009 558.5 592.809" stroke="#978383" stroke-linecap="round"/>
<path d="M511 34.8086C492.167 35.4753 458.8 62.2086 476 163.809" stroke="#978383" stroke-linecap="round"/>
<path d="M491 73.3086C478 202.142 457.1 470.709 477.5 514.309" stroke="#978383" stroke-linecap="round"/>
<path d="M516.5 61.8086C526.5 84.6419 546 145.109 544 204.309" stroke="#978383" stroke-linecap="round"/>
<path d="M548 467.809C562.667 457.142 598.3 435.409 623.5 433.809M509.5 427.309C529 409.142 579.1 373.809 623.5 377.809" stroke="#978383" stroke-linecap="round"/>
<path d="M568.5 213.309C591.5 317.309 632.5 330.309 623.5 376.809" stroke="#978383" stroke-linecap="round"/>
<path d="M508.5 427.809C514.333 437.809 530.4 459.909 548 468.309" stroke="#978383" stroke-linecap="round"/>
<path d="M425 64.3086C411.667 125.142 389 276.609 405 395.809" stroke="#978383" stroke-linecap="round"/>
<path d="M423.5 13.8086C407.5 16.1419 367.7 18.6086 336.5 9.80859" stroke="#978383" stroke-linecap="round"/>
<path d="M336.502 10.3086C317.002 18.3086 281.802 52.9086 297.002 127.309C304.5 188.809 276.901 312.809 286.501 394.809C285.668 435.142 284.9 525.609 288.5 564.809" stroke="#978383" stroke-linecap="round"/>
<path d="M232.5 55.3086C227.166 62.1419 217.8 114.409 223 268.809" stroke="#978383" stroke-linecap="round"/>
<path d="M214.5 68.3086C209.667 76.3086 202.1 116.509 210.5 213.309C218.9 310.109 209.333 402.642 203.5 436.809" stroke="#978383" stroke-linecap="round"/>
<path d="M204.5 64.6794C257 50.8104 259 12.6774 322 12.6794C324.833 9.72239 333 5.20832 343 10.8083" stroke="#978383" stroke-linecap="round"/>
<path d="M219.5 64.8086C220.167 76.9753 220.3 111.309 215.5 151.309" stroke="#978383" stroke-linecap="round"/>
<path d="M266.5 27.3086C234.166 34.9753 175.6 70.8086 200 152.809" stroke="#978383" stroke-linecap="round"/>
<path d="M223 48.3086C206.167 51.3086 176.2 80.0086 191 170.809" stroke="#978383" stroke-linecap="round"/>
<path d="M225.5 47.3083C215.834 41.3083 191 43.1083 169 98.3083C149.667 130.142 112.5 201.209 118.5 230.809" stroke="#978383" stroke-linecap="round"/>
<path d="M214 52.8064C183 43.8091 118.3 254.906 131.5 319.306" stroke="#978383" stroke-linecap="round"/>
<path d="M168.5 98.3086C132.833 129.642 60.6 200.709 57 234.309" stroke="#978383" stroke-linecap="round"/>
<path d="M58 236.309C40.1667 242.142 3.8 261.409 1 291.809" stroke="#978383" stroke-linecap="round"/>
<path d="M15 266.81C30.3333 254.143 71.9 263.61 115.5 402.81" stroke="#978383" stroke-linecap="round"/>
<path d="M315.5 722.309C321 700.809 329.5 270.809 330 196.809C330.4 137.609 392.167 50.1425 423 13.8095C435 -4.99054 444.667 0.975754 448 6.3089C449.6 -1.2911 487.333 19.8089 506 31.3089C511.333 33.3088 523.3 38.4086 528.5 42.8086C552 44.3086 561.8 47.3086 579 87.3086C605.333 149.309 661.8 333.809 677 575.809C655.833 580.475 609.6 588.509 594 583.309C584.833 581.975 564.9 582.009 558.5 592.809" stroke="#636061" stroke-linecap="round"/>
<path d="M511 34.8086C492.167 35.4753 458.8 62.2086 476 163.809" stroke="#636061" stroke-linecap="round"/>
<path d="M491 73.3086C478 202.142 457.1 470.709 477.5 514.309" stroke="#636061" stroke-linecap="round"/>
<path d="M516.5 61.8086C526.5 84.6419 546 145.109 544 204.309" stroke="#636061" stroke-linecap="round"/>
<path d="M548 467.809C562.667 457.142 598.3 435.409 623.5 433.809M509.5 427.309C529 409.142 579.1 373.809 623.5 377.809" stroke="#636061" stroke-linecap="round"/>
<path d="M568.5 213.309C591.5 317.309 632.5 330.309 623.5 376.809" stroke="#636061" stroke-linecap="round"/>
<path d="M508.5 427.809C514.333 437.809 530.4 459.909 548 468.309" stroke="#636061" stroke-linecap="round"/>
<path d="M425 64.3086C411.667 125.142 389 276.609 405 395.809" stroke="#636061" stroke-linecap="round"/>
<path d="M423.5 13.8086C407.5 16.1419 367.7 18.6086 336.5 9.80859" stroke="#636061" stroke-linecap="round"/>
<path d="M336.502 10.3086C317.002 18.3086 281.802 52.9086 297.002 127.309C304.5 188.809 276.901 312.809 286.501 394.809C285.668 435.142 284.9 525.609 288.5 564.809" stroke="#636061" stroke-linecap="round"/>
<path d="M232.5 55.3086C227.166 62.1419 217.8 114.409 223 268.809" stroke="#636061" stroke-linecap="round"/>
<path d="M214.5 68.3086C209.667 76.3086 202.1 116.509 210.5 213.309C218.9 310.109 209.333 402.642 203.5 436.809" stroke="#636061" stroke-linecap="round"/>
<path d="M204.5 64.6794C257 50.8104 259 12.6774 322 12.6794C324.833 9.72239 333 5.20832 343 10.8083" stroke="#636061" stroke-linecap="round"/>
<path d="M219.5 64.8086C220.167 76.9753 220.3 111.309 215.5 151.309" stroke="#636061" stroke-linecap="round"/>
<path d="M266.5 27.3086C234.166 34.9753 175.6 70.8086 200 152.809" stroke="#636061" stroke-linecap="round"/>
<path d="M223 48.3086C206.167 51.3086 176.2 80.0086 191 170.809" stroke="#636061" stroke-linecap="round"/>
<path d="M225.5 47.3083C215.834 41.3083 191 43.1083 169 98.3083C149.667 130.142 112.5 201.209 118.5 230.809" stroke="#636061" stroke-linecap="round"/>
<path d="M214 52.8064C183 43.8091 118.3 254.906 131.5 319.306" stroke="#636061" stroke-linecap="round"/>
<path d="M168.5 98.3086C132.833 129.642 60.6 200.709 57 234.309" stroke="#636061" stroke-linecap="round"/>
<path d="M58 236.309C40.1667 242.142 3.8 261.409 1 291.809" stroke="#636061" stroke-linecap="round"/>
<path d="M15 266.81C30.3333 254.143 71.9 263.61 115.5 402.81" stroke="#636061" stroke-linecap="round"/>
<path d="M334.5 731.309C340 709.809 348.5 279.809 349 205.809C349.4 146.609 411.167 59.1425 442 22.8095C454 4.00946 463.667 9.97575 467 15.3089C468.6 7.7089 506.333 28.8089 525 40.3089C530.333 42.3088 542.3 47.4086 547.5 51.8086C571 53.3086 580.8 56.3086 598 96.3086C624.333 158.309 680.8 342.809 696 584.809C674.833 589.475 628.6 597.509 613 592.309C603.833 590.975 583.9 591.009 577.5 601.809" stroke="url(#paint0_linear_1037_511)" stroke-linecap="round"/>
<path d="M530 43.8086C511.167 44.4753 477.8 71.2086 495 172.809" stroke="url(#paint1_linear_1037_511)" stroke-linecap="round"/>
<path d="M510 82.3086C497 211.142 476.1 479.709 496.5 523.309" stroke="url(#paint2_linear_1037_511)" stroke-linecap="round"/>
<path d="M535.5 70.8086C545.5 93.6419 565 154.109 563 213.309" stroke="url(#paint3_linear_1037_511)" stroke-linecap="round"/>
<path d="M567 476.809C581.667 466.142 617.3 444.409 642.5 442.809M528.5 436.309C548 418.142 598.1 382.809 642.5 386.809" stroke="url(#paint4_linear_1037_511)" stroke-linecap="round"/>
<path d="M587.5 222.309C610.5 326.309 651.5 339.309 642.5 385.809" stroke="url(#paint5_linear_1037_511)" stroke-linecap="round"/>
<path d="M527.5 436.809C533.333 446.809 549.4 468.909 567 477.309" stroke="url(#paint6_linear_1037_511)" stroke-linecap="round"/>
<path d="M444 73.3086C430.667 134.142 408 285.609 424 404.809" stroke="url(#paint7_linear_1037_511)" stroke-linecap="round"/>
<path d="M442.5 22.8086C426.5 25.1419 386.7 27.6086 355.5 18.8086" stroke="url(#paint8_linear_1037_511)" stroke-linecap="round"/>
<path d="M355.502 19.3086C336.002 27.3086 300.802 61.9086 316.002 136.309C323.5 197.809 295.901 321.809 305.501 403.809C304.668 444.142 303.9 534.609 307.5 573.809" stroke="url(#paint9_linear_1037_511)" stroke-linecap="round"/>
<path d="M251.5 64.3086C246.166 71.1419 236.8 123.409 242 277.809" stroke="url(#paint10_linear_1037_511)" stroke-linecap="round"/>
<path d="M233.5 77.3086C228.667 85.3086 221.1 125.509 229.5 222.309C237.9 319.109 228.333 411.642 222.5 445.809" stroke="url(#paint11_linear_1037_511)" stroke-linecap="round"/>
<path d="M223.5 73.6794C276 59.8104 278 21.6774 341 21.6794C343.833 18.7224 352 14.2083 362 19.8083" stroke="url(#paint12_linear_1037_511)" stroke-linecap="round"/>
<path d="M238.5 73.8086C239.167 85.9753 239.3 120.309 234.5 160.309" stroke="url(#paint13_linear_1037_511)" stroke-linecap="round"/>
<path d="M285.5 36.3086C253.166 43.9753 194.6 79.8086 219 161.809" stroke="url(#paint14_linear_1037_511)" stroke-linecap="round"/>
<path d="M242 57.3086C225.167 60.3086 195.2 89.0086 210 179.809" stroke="url(#paint15_linear_1037_511)" stroke-linecap="round"/>
<path d="M244.5 56.3083C234.834 50.3083 210 52.1083 188 107.308C168.667 139.142 131.5 210.209 137.5 239.809" stroke="url(#paint16_linear_1037_511)" stroke-linecap="round"/>
<path d="M233 61.8064C202 52.8091 137.3 263.906 150.5 328.306" stroke="url(#paint17_linear_1037_511)" stroke-linecap="round"/>
<path d="M187.5 107.309C151.833 138.642 79.6 209.709 76 243.309" stroke="url(#paint18_linear_1037_511)" stroke-linecap="round"/>
<path d="M77 245.309C59.1667 251.142 22.8 270.409 20 300.809" stroke="url(#paint19_linear_1037_511)" stroke-linecap="round"/>
<path d="M34 275.81C49.3333 263.143 90.9 272.61 134.5 411.81" stroke="url(#paint20_linear_1037_511)" stroke-linecap="round"/>
<path d="M343.5 743.309C349 721.809 357.5 291.809 358 217.809C358.4 158.609 420.167 71.1425 451 34.8095C463 16.0095 472.667 21.9758 476 27.3089C477.6 19.7089 515.333 40.8089 534 52.3089C539.333 54.3088 551.3 59.4086 556.5 63.8086C580 65.3086 589.8 68.3086 607 108.309C633.333 170.309 689.8 354.809 705 596.809C683.833 601.475 637.6 609.509 622 604.309C612.833 602.975 592.9 603.009 586.5 613.809" stroke="url(#paint21_linear_1037_511)" stroke-linecap="round"/>
<path d="M539 55.8086C520.167 56.4753 486.8 83.2086 504 184.809" stroke="url(#paint22_linear_1037_511)" stroke-linecap="round"/>
<path d="M519 94.3086C506 223.142 485.1 491.709 505.5 535.309" stroke="url(#paint23_linear_1037_511)" stroke-linecap="round"/>
<path d="M544.5 82.8086C554.5 105.642 574 166.109 572 225.309" stroke="url(#paint24_linear_1037_511)" stroke-linecap="round"/>
<path d="M576 488.809C590.667 478.142 626.3 456.409 651.5 454.809M537.5 448.309C557 430.142 607.1 394.809 651.5 398.809" stroke="url(#paint25_linear_1037_511)" stroke-linecap="round"/>
<path d="M596.5 234.309C619.5 338.309 660.5 351.309 651.5 397.809" stroke="url(#paint26_linear_1037_511)" stroke-linecap="round"/>
<path d="M536.5 448.809C542.333 458.809 558.4 480.909 576 489.309" stroke="url(#paint27_linear_1037_511)" stroke-linecap="round"/>
<path d="M453 85.3086C439.667 146.142 417 297.609 433 416.809" stroke="url(#paint28_linear_1037_511)" stroke-linecap="round"/>
<path d="M451.5 34.8086C435.5 37.1419 395.7 39.6086 364.5 30.8086" stroke="url(#paint29_linear_1037_511)" stroke-linecap="round"/>
<path d="M364.502 31.3086C345.002 39.3086 309.802 73.9086 325.002 148.309C332.5 209.809 304.901 333.809 314.501 415.809C313.668 456.142 312.9 546.609 316.5 585.809" stroke="url(#paint30_linear_1037_511)" stroke-linecap="round"/>
<path d="M260.5 76.3086C255.166 83.1419 245.8 135.409 251 289.809" stroke="url(#paint31_linear_1037_511)" stroke-linecap="round"/>
<path d="M242.5 89.3086C237.667 97.3086 230.1 137.509 238.5 234.309C246.9 331.109 237.333 423.642 231.5 457.809" stroke="url(#paint32_linear_1037_511)" stroke-linecap="round"/>
<path d="M232.5 85.6794C285 71.8104 287 33.6774 350 33.6794C352.833 30.7224 361 26.2083 371 31.8083" stroke="url(#paint33_linear_1037_511)" stroke-linecap="round"/>
<path d="M247.5 85.8086C248.167 97.9753 248.3 132.309 243.5 172.309" stroke="url(#paint34_linear_1037_511)" stroke-linecap="round"/>
<path d="M294.5 48.3086C262.166 55.9753 203.6 91.8086 228 173.809" stroke="url(#paint35_linear_1037_511)" stroke-linecap="round"/>
<path d="M251 69.3086C234.167 72.3086 204.2 101.009 219 191.809" stroke="url(#paint36_linear_1037_511)" stroke-linecap="round"/>
<path d="M253.5 68.3083C243.834 62.3083 219 64.1083 197 119.308C177.667 151.142 140.5 222.209 146.5 251.809" stroke="url(#paint37_linear_1037_511)" stroke-linecap="round"/>
<path d="M242 73.8064C211 64.8091 146.3 275.906 159.5 340.306" stroke="url(#paint38_linear_1037_511)" stroke-linecap="round"/>
<path d="M196.5 119.309C160.833 150.642 88.6 221.709 85 255.309" stroke="url(#paint39_linear_1037_511)" stroke-linecap="round"/>
<path d="M86 257.309C68.1667 263.142 31.8 282.409 29 312.809" stroke="url(#paint40_linear_1037_511)" stroke-linecap="round"/>
<path d="M43 287.81C58.3333 275.143 99.9 284.61 143.5 423.81" stroke="url(#paint41_linear_1037_511)" stroke-linecap="round"/>
<defs>
<linearGradient id="paint0_linear_1037_511" x1="515.25" y1="10" x2="515.25" y2="731.309" gradientUnits="userSpaceOnUse">
<stop stop-color="#A800E3" stop-opacity="0.3"/>
<stop offset="1" stop-color="#F80005" stop-opacity="0.3"/>
</linearGradient>
<linearGradient id="paint1_linear_1037_511" x1="510.112" y1="43.8086" x2="510.112" y2="172.809" gradientUnits="userSpaceOnUse">
<stop stop-color="#A800E3" stop-opacity="0.3"/>
<stop offset="1" stop-color="#F80005" stop-opacity="0.3"/>
</linearGradient>
<linearGradient id="paint2_linear_1037_511" x1="498.981" y1="82.3086" x2="498.981" y2="523.309" gradientUnits="userSpaceOnUse">
<stop stop-color="#A800E3" stop-opacity="0.3"/>
<stop offset="1" stop-color="#F80005" stop-opacity="0.3"/>
</linearGradient>
<linearGradient id="paint3_linear_1037_511" x1="549.321" y1="70.8086" x2="549.321" y2="213.309" gradientUnits="userSpaceOnUse">
<stop stop-color="#A800E3" stop-opacity="0.3"/>
<stop offset="1" stop-color="#F80005" stop-opacity="0.3"/>
</linearGradient>
<linearGradient id="paint4_linear_1037_511" x1="585.5" y1="386.496" x2="585.5" y2="476.809" gradientUnits="userSpaceOnUse">
<stop stop-color="#A800E3" stop-opacity="0.3"/>
<stop offset="1" stop-color="#F80005" stop-opacity="0.3"/>
</linearGradient>
<linearGradient id="paint5_linear_1037_511" x1="615.635" y1="222.309" x2="615.635" y2="385.809" gradientUnits="userSpaceOnUse">
<stop stop-color="#A800E3" stop-opacity="0.3"/>
<stop offset="1" stop-color="#F80005" stop-opacity="0.3"/>
</linearGradient>
<linearGradient id="paint6_linear_1037_511" x1="547.25" y1="436.809" x2="547.25" y2="477.309" gradientUnits="userSpaceOnUse">
<stop stop-color="#A800E3" stop-opacity="0.3"/>
<stop offset="1" stop-color="#F80005" stop-opacity="0.3"/>
</linearGradient>
<linearGradient id="paint7_linear_1037_511" x1="431.249" y1="73.3086" x2="431.249" y2="404.809" gradientUnits="userSpaceOnUse">
<stop stop-color="#A800E3" stop-opacity="0.3"/>
<stop offset="1" stop-color="#F80005" stop-opacity="0.3"/>
</linearGradient>
<linearGradient id="paint8_linear_1037_511" x1="399" y1="18.8086" x2="399" y2="25.0039" gradientUnits="userSpaceOnUse">
<stop stop-color="#A800E3" stop-opacity="0.3"/>
<stop offset="1" stop-color="#F80005" stop-opacity="0.3"/>
</linearGradient>
<linearGradient id="paint9_linear_1037_511" x1="329.475" y1="19.3086" x2="329.475" y2="573.809" gradientUnits="userSpaceOnUse">
<stop stop-color="#A800E3" stop-opacity="0.3"/>
<stop offset="1" stop-color="#F80005" stop-opacity="0.3"/>
</linearGradient>
<linearGradient id="paint10_linear_1037_511" x1="245.989" y1="64.3086" x2="245.989" y2="277.809" gradientUnits="userSpaceOnUse">
<stop stop-color="#A800E3" stop-opacity="0.3"/>
<stop offset="1" stop-color="#F80005" stop-opacity="0.3"/>
</linearGradient>
<linearGradient id="paint11_linear_1037_511" x1="228" y1="77.3086" x2="228" y2="445.809" gradientUnits="userSpaceOnUse">
<stop stop-color="#A800E3" stop-opacity="0.3"/>
<stop offset="1" stop-color="#F80005" stop-opacity="0.3"/>
</linearGradient>
<linearGradient id="paint12_linear_1037_511" x1="292.75" y1="17.1445" x2="292.75" y2="73.6794" gradientUnits="userSpaceOnUse">
<stop stop-color="#A800E3" stop-opacity="0.3"/>
<stop offset="1" stop-color="#F80005" stop-opacity="0.3"/>
</linearGradient>
<linearGradient id="paint13_linear_1037_511" x1="236.669" y1="73.8086" x2="236.669" y2="160.309" gradientUnits="userSpaceOnUse">
<stop stop-color="#A800E3" stop-opacity="0.3"/>
<stop offset="1" stop-color="#F80005" stop-opacity="0.3"/>
</linearGradient>
<linearGradient id="paint14_linear_1037_511" x1="249.354" y1="36.3086" x2="249.354" y2="161.809" gradientUnits="userSpaceOnUse">
<stop stop-color="#A800E3" stop-opacity="0.3"/>
<stop offset="1" stop-color="#F80005" stop-opacity="0.3"/>
</linearGradient>
<linearGradient id="paint15_linear_1037_511" x1="224.007" y1="57.3086" x2="224.007" y2="179.809" gradientUnits="userSpaceOnUse">
<stop stop-color="#A800E3" stop-opacity="0.3"/>
<stop offset="1" stop-color="#F80005" stop-opacity="0.3"/>
</linearGradient>
<linearGradient id="paint16_linear_1037_511" x1="190.676" y1="53.9609" x2="190.676" y2="239.809" gradientUnits="userSpaceOnUse">
<stop stop-color="#A800E3" stop-opacity="0.3"/>
<stop offset="1" stop-color="#F80005" stop-opacity="0.3"/>
</linearGradient>
<linearGradient id="paint17_linear_1037_511" x1="190.873" y1="61.5273" x2="190.873" y2="328.306" gradientUnits="userSpaceOnUse">
<stop stop-color="#A800E3" stop-opacity="0.3"/>
<stop offset="1" stop-color="#F80005" stop-opacity="0.3"/>
</linearGradient>
<linearGradient id="paint18_linear_1037_511" x1="131.75" y1="107.309" x2="131.75" y2="243.309" gradientUnits="userSpaceOnUse">
<stop stop-color="#A800E3" stop-opacity="0.3"/>
<stop offset="1" stop-color="#F80005" stop-opacity="0.3"/>
</linearGradient>
<linearGradient id="paint19_linear_1037_511" x1="48.5" y1="245.309" x2="48.5" y2="300.809" gradientUnits="userSpaceOnUse">
<stop stop-color="#A800E3" stop-opacity="0.3"/>
<stop offset="1" stop-color="#F80005" stop-opacity="0.3"/>
</linearGradient>
<linearGradient id="paint20_linear_1037_511" x1="84.25" y1="271.723" x2="84.25" y2="411.81" gradientUnits="userSpaceOnUse">
<stop stop-color="#A800E3" stop-opacity="0.3"/>
<stop offset="1" stop-color="#F80005" stop-opacity="0.3"/>
</linearGradient>
<linearGradient id="paint21_linear_1037_511" x1="524.25" y1="22" x2="524.25" y2="743.309" gradientUnits="userSpaceOnUse">
<stop stop-color="#A800E3" stop-opacity="0.3"/>
<stop offset="1" stop-color="#F80005" stop-opacity="0.3"/>
</linearGradient>
<linearGradient id="paint22_linear_1037_511" x1="519.112" y1="55.8086" x2="519.112" y2="184.809" gradientUnits="userSpaceOnUse">
<stop stop-color="#A800E3" stop-opacity="0.3"/>
<stop offset="1" stop-color="#F80005" stop-opacity="0.3"/>
</linearGradient>
<linearGradient id="paint23_linear_1037_511" x1="507.981" y1="94.3086" x2="507.981" y2="535.309" gradientUnits="userSpaceOnUse">
<stop stop-color="#A800E3" stop-opacity="0.3"/>
<stop offset="1" stop-color="#F80005" stop-opacity="0.3"/>
</linearGradient>
<linearGradient id="paint24_linear_1037_511" x1="558.321" y1="82.8086" x2="558.321" y2="225.309" gradientUnits="userSpaceOnUse">
<stop stop-color="#A800E3" stop-opacity="0.3"/>
<stop offset="1" stop-color="#F80005" stop-opacity="0.3"/>
</linearGradient>
<linearGradient id="paint25_linear_1037_511" x1="594.5" y1="398.496" x2="594.5" y2="488.809" gradientUnits="userSpaceOnUse">
<stop stop-color="#A800E3" stop-opacity="0.3"/>
<stop offset="1" stop-color="#F80005" stop-opacity="0.3"/>
</linearGradient>
<linearGradient id="paint26_linear_1037_511" x1="624.635" y1="234.309" x2="624.635" y2="397.809" gradientUnits="userSpaceOnUse">
<stop stop-color="#A800E3" stop-opacity="0.3"/>
<stop offset="1" stop-color="#F80005" stop-opacity="0.3"/>
</linearGradient>
<linearGradient id="paint27_linear_1037_511" x1="556.25" y1="448.809" x2="556.25" y2="489.309" gradientUnits="userSpaceOnUse">
<stop stop-color="#A800E3" stop-opacity="0.3"/>
<stop offset="1" stop-color="#F80005" stop-opacity="0.3"/>
</linearGradient>
<linearGradient id="paint28_linear_1037_511" x1="440.249" y1="85.3086" x2="440.249" y2="416.809" gradientUnits="userSpaceOnUse">
<stop stop-color="#A800E3" stop-opacity="0.3"/>
<stop offset="1" stop-color="#F80005" stop-opacity="0.3"/>
</linearGradient>
<linearGradient id="paint29_linear_1037_511" x1="408" y1="30.8086" x2="408" y2="37.0039" gradientUnits="userSpaceOnUse">
<stop stop-color="#A800E3" stop-opacity="0.3"/>
<stop offset="1" stop-color="#F80005" stop-opacity="0.3"/>
</linearGradient>
<linearGradient id="paint30_linear_1037_511" x1="338.475" y1="31.3086" x2="338.475" y2="585.809" gradientUnits="userSpaceOnUse">
<stop stop-color="#A800E3" stop-opacity="0.3"/>
<stop offset="1" stop-color="#F80005" stop-opacity="0.3"/>
</linearGradient>
<linearGradient id="paint31_linear_1037_511" x1="254.989" y1="76.3086" x2="254.989" y2="289.809" gradientUnits="userSpaceOnUse">
<stop stop-color="#A800E3" stop-opacity="0.3"/>
<stop offset="1" stop-color="#F80005" stop-opacity="0.3"/>
</linearGradient>
<linearGradient id="paint32_linear_1037_511" x1="237" y1="89.3086" x2="237" y2="457.809" gradientUnits="userSpaceOnUse">
<stop stop-color="#A800E3" stop-opacity="0.3"/>
<stop offset="1" stop-color="#F80005" stop-opacity="0.3"/>
</linearGradient>
<linearGradient id="paint33_linear_1037_511" x1="301.75" y1="29.1445" x2="301.75" y2="85.6794" gradientUnits="userSpaceOnUse">
<stop stop-color="#A800E3" stop-opacity="0.3"/>
<stop offset="1" stop-color="#F80005" stop-opacity="0.3"/>
</linearGradient>
<linearGradient id="paint34_linear_1037_511" x1="245.669" y1="85.8086" x2="245.669" y2="172.309" gradientUnits="userSpaceOnUse">
<stop stop-color="#A800E3" stop-opacity="0.3"/>
<stop offset="1" stop-color="#F80005" stop-opacity="0.3"/>
</linearGradient>
<linearGradient id="paint35_linear_1037_511" x1="258.354" y1="48.3086" x2="258.354" y2="173.809" gradientUnits="userSpaceOnUse">
<stop stop-color="#A800E3" stop-opacity="0.3"/>
<stop offset="1" stop-color="#F80005" stop-opacity="0.3"/>
</linearGradient>
<linearGradient id="paint36_linear_1037_511" x1="233.007" y1="69.3086" x2="233.007" y2="191.809" gradientUnits="userSpaceOnUse">
<stop stop-color="#A800E3" stop-opacity="0.3"/>
<stop offset="1" stop-color="#F80005" stop-opacity="0.3"/>
</linearGradient>
<linearGradient id="paint37_linear_1037_511" x1="199.676" y1="65.9609" x2="199.676" y2="251.809" gradientUnits="userSpaceOnUse">
<stop stop-color="#A800E3" stop-opacity="0.3"/>
<stop offset="1" stop-color="#F80005" stop-opacity="0.3"/>
</linearGradient>
<linearGradient id="paint38_linear_1037_511" x1="199.873" y1="73.5273" x2="199.873" y2="340.306" gradientUnits="userSpaceOnUse">
<stop stop-color="#A800E3" stop-opacity="0.3"/>
<stop offset="1" stop-color="#F80005" stop-opacity="0.3"/>
</linearGradient>
<linearGradient id="paint39_linear_1037_511" x1="140.75" y1="119.309" x2="140.75" y2="255.309" gradientUnits="userSpaceOnUse">
<stop stop-color="#A800E3" stop-opacity="0.3"/>
<stop offset="1" stop-color="#F80005" stop-opacity="0.3"/>
</linearGradient>
<linearGradient id="paint40_linear_1037_511" x1="57.5" y1="257.309" x2="57.5" y2="312.809" gradientUnits="userSpaceOnUse">
<stop stop-color="#A800E3" stop-opacity="0.3"/>
<stop offset="1" stop-color="#F80005" stop-opacity="0.3"/>
</linearGradient>
<linearGradient id="paint41_linear_1037_511" x1="93.25" y1="283.723" x2="93.25" y2="423.81" gradientUnits="userSpaceOnUse">
<stop stop-color="#A800E3" stop-opacity="0.3"/>
<stop offset="1" stop-color="#F80005" stop-opacity="0.3"/>
</linearGradient>
</defs>
</svg>
